<svg width="138" height="96" viewBox="0 0 138 96" fill="none" xmlns="http://www.w3.org/2000/svg">
<path d="M44.9401 14.7585C47.3091 14.7402 49.6781 14.7358 52.0471 14.745C53.2814 14.7432 56.6988 14.6306 57.657 14.9192C58.2512 15.7747 58.0571 16.2915 57.8866 17.2626C57.6229 18.7143 57.523 20.1839 57.3451 21.6456C57.2193 22.3198 57.0244 22.851 56.2578 22.9527C54.7196 23.1568 53.1055 23.0984 51.5574 23.2183C50.3579 23.3112 48.9553 23.2144 47.8078 23.5419C47.3857 23.9442 47.2477 24.1633 46.9234 24.6394C48.6172 24.6198 55.4258 23.7564 56.3438 24.1218C56.5241 24.1936 56.6469 24.3989 56.7182 24.5712C56.9524 25.1359 56.8491 25.8091 56.8002 26.4021C56.6662 28.031 56.3219 29.6538 56.1266 31.2797C55.9163 33.0302 55.7796 34.7869 55.5779 36.5377C55.3313 38.6783 55.0183 40.8066 54.7369 42.9421C54.6327 43.7326 54.6504 45.0792 54.3395 45.7651C54.2074 46.0566 54.0378 46.2545 53.7366 46.3735C52.682 46.7902 51.3681 46.8708 50.251 47.0431L45.1272 47.8535C44.3699 47.9781 43.6639 48.1871 42.9203 48.3084C42.1144 48.4397 41.8512 48.0022 41.6521 47.3496C42.0669 45.2999 42.3465 43.1372 42.7872 41.1085C43.3431 38.5491 43.9182 36.1301 44.3025 33.5165C42.8362 33.5917 39.0318 33.8164 37.6368 34.1615C35.3527 36.457 32.3828 38.9507 30.2853 41.1897C27.9846 43.2958 25.8014 45.579 23.4457 47.6604C21.8748 49.0483 19.9821 51.2239 18.2609 52.3938C17.4917 52.9167 13.3185 53.1766 12.2835 53.4846C10.6362 53.7279 8.7517 54.1083 7.0627 54.4152C5.98118 54.5036 4.28365 55.1239 3.29385 54.5712C2.85707 54.2253 3.00971 53.4869 3.33072 53.1686C5.06892 51.4452 6.99889 49.7384 8.7891 48.0818L19.2352 38.2205L36.2815 22.0451C37.6745 20.7235 39.0389 19.3542 40.4705 18.0677C41.3915 17.24 42.2823 16.1914 43.214 15.3618C43.7081 14.9219 44.3247 14.8177 44.9401 14.7585Z" fill="#4697F2"/>
<path d="M45.9692 15.6751C47.0765 15.5899 48.8752 15.6575 50.0151 15.6699C52.2962 15.7041 54.5777 15.6948 56.8584 15.6418C56.8394 18.0952 56.4298 19.741 56.3108 21.9972C55.4854 21.9812 53.7708 22.0832 52.9175 22.1285C51.4948 22.2039 48.7145 22.1525 47.4267 22.51C46.4113 23.6486 45.5569 24.7629 44.2126 25.5004C45.5728 25.7443 47.4751 25.5421 48.8931 25.4736L55.7623 25.1192C55.6439 27.3566 55.4085 28.9989 55.1524 31.1823C54.9015 33.4568 54.628 35.7289 54.332 37.9979C54.07 39.9986 53.5761 43.5523 53.5944 45.5824C52.3517 45.5726 50.3242 45.9352 49.0779 46.1626C46.8973 46.5604 44.8053 47.0392 42.5951 47.3112L44.3418 38.5905C44.8269 36.2244 45.2947 34.6851 45.4972 32.2562C44.0833 32.413 42.67 32.5854 41.2547 32.7276C40.1027 32.8433 38.5071 32.7624 37.4428 33.2026C36.6942 33.5122 31.7038 38.4256 30.8863 39.2571C30.0358 40.0962 29.1026 40.8612 28.2363 41.6865C26.7344 43.1176 18.7462 50.9974 17.5926 51.4933C16.4051 52.0037 14.7877 52.0097 13.51 52.2273C12.1944 52.4514 10.9035 52.8094 9.59008 53.043C7.87058 53.3489 6.10731 53.5166 4.37292 53.7242C4.44753 53.625 4.52716 53.5297 4.61152 53.4388C5.84016 52.0946 8.1233 50.1717 9.54581 48.7891C14.7206 43.7594 20.044 38.8498 25.2764 33.8845L37.6261 22.1895C39.7011 20.2088 41.8489 18.1653 43.9403 16.1965C44.4936 15.6758 45.2441 15.7054 45.9692 15.6751Z" fill="white"/>
<path d="M92.1623 27.1593C93.0775 26.122 94.1629 25.1569 95.1353 24.1555C96.4718 22.778 97.8594 21.4904 99.2531 20.1602C101.006 18.4865 102.554 16.5166 104.456 15.005C104.716 14.8202 105.207 14.7782 105.507 14.7745C109.061 14.7301 112.622 14.7648 116.176 14.7579C117.378 14.7555 117.914 15.8024 117.084 16.6279C114.386 19.3353 111.733 22.0876 109.126 24.8839C108.419 25.6299 106.663 27.2351 106.146 27.9562C106.837 28.7834 107.771 29.6348 108.601 30.3263C109.028 30.6823 109.552 31.0148 109.96 31.3807L126.718 46.4014L131.615 50.723C132.233 51.2692 132.906 51.7714 133.488 52.3482C134.11 52.9645 135.581 54.2681 134.013 54.8133C131.943 54.8414 129.01 54.0044 126.852 53.7203C124.655 53.3181 121.522 53.0243 119.432 52.3818C118.955 52.2351 116.503 49.8195 115.954 49.3017L109.39 43.068C108.907 42.6054 108.372 42.1879 107.902 41.7362C107.325 41.1815 106.803 40.6011 106.207 40.0478C104.046 38.0414 101.882 36.0333 99.8256 33.9156C98.9181 34.773 94.717 38.5418 94.4957 39.2349C94.6315 40.7796 96.5832 47.2345 95.6932 48.1616C95.5306 48.331 95.336 48.3051 95.1208 48.2889C93.2912 48.151 91.3853 47.6412 89.5672 47.3449C87.8384 47.0632 85.9134 46.9832 84.2388 46.4884C83.9861 46.4139 83.5152 46.1659 83.3732 45.9381C82.9313 45.2307 81.9833 34.7265 81.7879 33.1085C81.7177 32.5292 81.581 31.9574 81.4986 31.3793C81.3849 30.5717 81.3421 29.7525 81.2498 28.9419C81.1399 27.9776 80.9788 27.0105 80.9117 26.0424C80.8773 25.5427 80.8323 24.9086 81.0391 24.4383C81.104 24.2905 81.1658 24.1922 81.2941 24.0949C82.4222 23.8367 86.9507 24.4565 88.3345 24.5091C88.9757 24.5335 89.8786 24.591 90.5434 24.6086C90.7174 24.6132 91.0708 24.7276 91.2258 24.8312C91.9028 25.2854 91.9578 26.4261 92.1623 27.1593Z" fill="#4697F2"/>
<path d="M104.986 15.778C107.596 15.6979 110.215 15.7284 112.825 15.6913C113.869 15.6764 115.351 15.7492 116.344 15.6551C113.789 18.7442 110.84 21.4289 108.1 24.3474C107.552 24.9312 104.941 27.3945 104.887 28.0318C105.095 28.8699 109.006 31.9863 109.957 32.8381L122.947 44.3354L129.994 50.6506C131.233 51.7675 132.083 52.6476 133.43 53.7258C130.208 53.2114 127.004 52.958 123.802 52.1757C122.567 51.8737 121.116 51.7691 119.832 51.504C119.268 51.0161 118.659 50.4344 118.128 49.9069C114.29 46.0889 110.166 42.4955 106.291 38.7293L102.209 34.785C101.568 34.1709 100.52 33.1123 99.8508 32.6328C98.4387 33.7172 96.7863 35.4457 95.4391 36.6598C94.7697 37.2631 94.0385 38.0195 93.3088 38.543C93.5332 39.2972 94.3392 43.6594 94.4087 44.517C94.5926 45.2102 94.888 46.6289 95.1651 47.1822C94.7903 47.1663 94.2155 47.1593 93.8621 47.0984C92.5913 47.0069 90.6808 46.53 89.3985 46.3052C87.6728 46.0026 85.9607 45.7205 84.2174 45.5273C84.0548 43.212 83.6411 40.9242 83.3877 38.623C82.8893 34.0996 82.1947 29.548 81.9032 25.0067C84.4716 25.3476 88.0605 25.4089 90.7266 25.5493C90.8907 26.8806 91.1937 28.009 91.3708 29.2933C93.0203 27.8516 94.4758 26.2907 96.0245 24.7478C97.6144 23.1645 99.3493 21.5939 100.884 19.9543C102.049 18.71 104.021 17.0584 104.986 15.778Z" fill="white"/>
<path d="M94.4086 44.517C94.5926 45.2103 94.888 46.6289 95.1651 47.1822C94.7903 47.1663 94.2155 47.1593 93.8621 47.0984C94.0865 47.0862 94.1766 47.1029 94.3598 46.9886C94.6056 46.4729 94.356 45.3382 94.4041 44.5783L94.4086 44.517Z" fill="white"/>
<path d="M24.2881 0.85979C25.3238 0.705251 29.2847 1.2901 30.4596 1.42572C32.3534 1.64434 35.9115 1.7086 37.647 2.2049C38.6141 3.35132 39.9445 5.99788 40.9688 7.52066L84.0128 7.51859C87.5361 7.51848 92.9248 7.58811 96.5275 7.43946C97.448 7.40148 99.1615 2.46873 100.19 2.22057C102.654 1.69721 104.744 1.63143 107.317 1.40494C108.67 1.36706 112.393 0.64497 113.523 0.931821C114.361 1.14444 118.333 6.10352 118.762 6.9928C119.375 8.26183 115.963 8.49914 115.379 8.65204C113.084 9.11486 110.828 9.63351 108.528 10.0647C105.919 10.5539 103.223 11.0913 100.669 11.7911C100.28 11.898 99.5348 12.9364 99.0196 13.2626L98.9448 13.3092C96.8648 13.4802 93.4355 13.3581 91.254 13.3527L77.2395 13.3327L52.8804 13.3446C48.599 13.3504 44.312 13.3638 40.0307 13.3481C39.6236 13.3466 38.9684 13.3461 38.617 13.1649L38.574 13.1422C38.0345 12.8623 37.2062 11.8394 36.7917 11.7376C31.4 10.4185 25.9173 9.40547 20.4782 8.27877C18.9545 8.16897 18.442 7.18848 19.5266 5.98716C20.51 4.89802 23.0969 1.41163 24.2881 0.85979Z" fill="#4697F2"/>
<path d="M24.6154 1.76541C25.8958 1.69735 27.1563 2.05122 28.3875 2.15965C31.2684 2.41338 34.2934 2.9797 37.1616 3.07869C37.7837 4.45563 39.4557 7.40925 40.4732 8.5019C41.612 8.57567 43.4618 8.51318 44.6702 8.51264L52.9138 8.51088L78.5875 8.51095L91.8776 8.50298C93.1889 8.50344 96.1741 8.68762 97.2656 8.4434C97.9769 7.83052 100.055 4.10031 100.632 3.0847C103.263 2.89003 105.891 2.62933 108.51 2.30282C109.115 2.23228 112.704 1.63257 113.01 1.86383C114.835 3.24569 116.138 5.57104 117.822 7.09127L115.194 7.67118C111.569 8.50428 107.938 9.10789 104.309 9.91491C103.05 10.1949 101.525 10.4523 100.316 10.8929C99.6844 11.123 99.0692 11.8878 98.4281 12.2518L98.3662 12.2861C96.8145 12.3368 95.1345 12.2885 93.5736 12.2819L85.8913 12.2757L58.7843 12.2701L45.5694 12.3063C43.9006 12.3125 40.5821 12.4885 39.0725 12.204C38.7001 11.8654 37.8163 11.0111 37.3673 10.8833C31.7343 9.28049 25.6325 8.61316 20.0158 7.03624C21.0913 5.56694 22.3909 4.21894 23.5753 2.83952C23.9083 2.45152 24.2086 2.07895 24.6154 1.76541Z" fill="white"/>
<path d="M15.7622 83.5744C16.3618 82.583 16.4505 81.9266 16.8995 80.9306C18.8211 76.6686 20.5657 72.3258 22.4699 68.0559C22.8614 67.1778 23.1687 66.5417 24.2208 66.5587C26.5352 66.5198 28.8104 66.5632 31.121 66.5371C32.0952 66.5261 33.0302 66.4622 33.9769 66.6885C34.0237 66.9848 34.1069 67.2988 34.1776 67.5921C33.6295 69.1705 33.1302 69.9461 32.478 71.387C31.5622 73.4103 30.6583 75.459 29.7923 77.5039C29.3437 78.5636 28.5371 80.0327 28.2338 81.0778C26.5573 85.2705 24.5606 89.5936 23.0057 93.8584C22.9376 94.0455 22.6796 94.3813 22.5472 94.55C21.1287 95.0569 19.5021 94.721 18.0402 94.6336C16.2061 94.524 14.7714 94.2203 13.0438 93.6314C2.77824 90.1342 1.25714 78.1403 1.61066 68.7621C1.68325 66.8367 1.56291 66.5629 3.60716 66.5363C6.0728 66.5042 8.61378 66.6082 11.0769 66.5178C12.2021 66.5352 12.0712 67.5074 12.0735 68.3639C12.0858 73.0082 11.7005 78.2615 14.3712 82.3284C14.5019 82.5278 15.5223 83.3628 15.7622 83.5744Z" fill="#4697F2"/>
<path d="M23.7854 67.5478C26.4604 67.7357 30.2686 67.6045 32.9734 67.5415C32.6787 68.9861 31.3175 71.2361 30.6784 72.7284L24.6538 86.8969C24.0872 88.2357 23.5708 89.5077 23.0337 90.8595C22.6211 91.8985 22.0964 92.7918 21.7358 93.9128C17.5678 93.4627 13.3031 93.5241 9.76785 90.7806C7.80982 89.2608 5.54833 86.538 4.73923 84.1664C4.2071 82.8399 3.67124 81.3891 3.40966 79.9798C2.65523 75.9158 2.60252 71.7487 2.82527 67.6425L11.0412 67.5985C10.9785 72.5039 10.3843 83.1657 16.4966 84.7392C18.4551 80.0089 20.4567 75.3165 22.4974 70.6211C22.9202 69.6485 23.5174 68.556 23.7854 67.5478Z" fill="white"/>
<path d="M125.782 66.7109C127.745 66.1497 132.737 66.7391 134.979 66.6038C135.915 66.5474 136.138 67.7093 136.152 68.5009C136.207 71.6504 136.334 74.6708 135.597 77.77C135.115 81.2304 134.67 83.6603 132.872 86.7581C129.657 92.2957 124.166 94.6896 117.956 94.7816C115.22 94.8222 115.241 95.1857 114.232 92.6293C111.616 86.0036 108.79 79.4676 105.929 72.9462C105.336 71.587 103.716 68.7161 103.453 67.4759C103.621 67.0869 103.683 66.8959 103.96 66.5799C105.22 66.4798 113.436 66.4515 114.138 66.6576C114.467 66.7546 114.625 67.0487 114.79 67.3327C115.473 68.5021 115.902 69.7599 116.454 70.9857C117.255 72.7634 118.068 74.5501 118.83 76.3435C119.105 76.9932 119.313 77.6711 119.591 78.3205C119.948 79.1555 120.364 79.9652 120.72 80.801C121.035 81.541 121.284 82.3675 121.675 83.0653C121.794 83.2769 121.828 83.3214 122.058 83.3835C122.184 83.362 122.343 83.3114 122.447 83.2248C125.302 80.8578 125.519 75.2412 125.71 71.7766C125.808 69.9753 125.434 68.5352 125.782 66.7109Z" fill="#4697F2"/>
<path d="M104.646 67.5541C107.431 67.7142 111.091 67.6171 113.952 67.637C114.565 69.8278 115.915 72.1209 116.775 74.2479C118.219 77.8175 119.797 81.3416 121.298 84.8818C122.074 84.4746 122.894 84.2737 123.541 83.5882C127.071 79.841 126.591 72.3552 126.635 67.5761C129.142 67.7108 132.391 67.6253 134.966 67.6366C134.975 69.93 135.056 72.2581 134.898 74.5458C134.854 75.1877 134.812 75.8234 134.783 76.4664C134.754 77.8336 134.41 79.0581 134.149 80.3348C133.08 85.5895 129.97 90.5214 124.814 92.4989C122.254 93.4804 118.769 93.8661 115.986 93.853C115.075 92.2512 114.359 90.0399 113.642 88.284L109.37 78.0997C108.532 76.1449 107.609 74.1634 106.761 72.1997C106.119 70.7078 105.088 69.1514 104.646 67.5541Z" fill="white"/>
<path d="M111.454 55.5241C113.229 55.629 115.62 55.546 117.436 55.5417L127.984 55.5437C129.197 55.5449 132.511 55.4722 133.578 55.599C133.803 55.692 133.996 55.8451 134.062 56.0906C134.242 56.7559 134.555 58.7775 133.685 59.0622C133.057 59.2676 131.643 58.9715 132.04 60.1212C132.078 60.2317 132.171 60.2622 132.262 60.3221C132.68 60.3682 132.901 60.2895 133.286 60.3115C133.628 60.491 133.955 60.6579 134.092 61.05C134.285 61.6019 134.314 63.0088 134.026 63.5188C133.928 63.6919 133.735 63.9085 133.534 63.9582C132.756 64.1507 124.182 64.1373 123.766 63.8562C123.498 63.674 123.482 63.2911 123.437 62.9978C123.549 62.3807 123.716 58.6785 123.293 58.4358C123.025 59.6322 123.617 61.0121 122.847 62.6431C122.812 62.7056 122.775 62.7668 122.731 62.8239C122.256 63.4505 121.654 63.898 120.868 63.9904C119.739 64.1226 109.146 64.1636 108.585 63.9491C107.833 63.6619 107.719 62.8044 107.121 62.3788C106.828 62.17 105.985 62.2805 105.653 62.3485C104.957 62.4909 104.73 62.8713 104.366 63.4325C104.179 63.7195 103.944 63.9429 103.595 64.0072C102.622 64.186 101.444 64.0291 100.447 64.0277L91.5059 63.9362C90.1946 63.9342 87.7002 64.4742 86.7003 63.6475C85.9172 62.9994 85.2417 62.3274 84.3433 61.6999C84.2327 62.3584 84.2716 63.2235 83.9045 63.762C83.2366 64.3094 78.7066 64.0466 77.6418 64.0149C76.7388 63.988 76.3274 63.0824 75.9033 62.5105C75.6122 62.1183 74.2392 62.314 73.7856 62.36C73.2802 63.0149 72.8362 63.946 71.941 64.0453C65.199 64.7953 70.2883 60.6606 71.6132 58.0831C71.8636 57.5962 69.7236 55.5848 72.3957 55.5526C73.5259 55.5391 75.2084 55.4204 76.2719 55.6414C76.9915 56.3085 79.5568 60.5831 79.9331 60.6606C80.0438 60.3524 79.9698 60.1497 79.9751 59.8427C79.9957 58.6763 79.1699 57.9635 78.615 57.0438C78.0173 56.0531 78.8264 55.5614 79.7477 55.5582C82.629 55.5512 85.5104 55.5786 88.3918 55.5416C88.9245 55.5348 89.5992 55.7673 90.158 55.762C90.593 55.7578 91.1098 55.545 91.5128 55.5494C94.3522 55.5805 97.1923 55.5112 100.03 55.5496C100.271 55.5529 100.519 55.6298 100.743 55.7134C100.86 56.0887 100.955 56.448 101.002 56.8395C101.074 57.4508 101.192 58.4723 100.775 58.9715C100.454 59.3572 95.3696 59.1638 94.343 59.2785L94.3117 60.3069C96.5145 60.5679 99.3592 59.8601 101.106 60.9114C101.602 60.1475 102.749 58.7482 102.947 58.0511C103.111 57.4767 101.364 55.5104 103.674 55.5468C104.584 55.5612 106.54 55.4385 107.355 55.6002C108.266 55.7809 109.818 58.733 110.397 59.4954C110.772 59.9988 111.119 60.4892 111.408 60.9289C111.467 60.1261 111.42 59.5667 111.361 58.7657C110.911 58.0241 110.064 57.5041 109.87 56.5398C109.66 55.5033 110.776 55.5793 111.454 55.5241ZM118.683 60.3433C118.886 60.1525 118.84 59.6518 118.862 59.2956C118.039 59.1693 116.629 59.1509 115.786 59.2409C115.524 59.55 115.554 60.1827 116.005 60.268C116.851 60.4275 117.812 60.3207 118.683 60.3433Z" fill="#4697F2"/>
<path d="M111.239 56.5397C114.802 56.5714 118.496 56.53 122.06 56.4865C122.029 58.2304 122.135 59.996 122.055 61.7355C122.016 62.5759 121.232 62.9942 120.493 63.0321C119.162 63.1002 117.688 63.1257 116.358 63.0673C115.294 63.0206 113.364 63.2513 112.404 63.0787L112.35 62.9613C112.325 61.6876 112.288 60.4497 112.344 59.1763C113.064 59.181 113.813 59.2 114.528 59.1329C114.544 59.8728 114.554 60.6129 114.56 61.353C116.318 61.3377 118.076 61.3389 119.834 61.3565C119.771 60.4831 119.799 59.1835 119.796 58.2821C118.036 58.3323 113.926 58.4799 112.33 58.139C111.981 57.8595 111.256 57.0793 111.111 56.6627L111.239 56.5397Z" fill="white"/>
<path d="M79.55 56.5431C80.1782 56.51 80.8773 56.5182 81.5093 56.523C83.7915 56.5402 86.076 56.4909 88.3566 56.4961C88.5795 56.4965 89.3001 56.5695 89.455 56.7018C90.19 57.3302 90.1893 59.0026 90.2129 59.8281C89.7389 60.3385 88.9001 60.8452 88.307 61.2227C89.0024 61.671 89.7466 62.5654 90.3847 63.1769C89.3878 63.0517 88.552 63.1705 87.5293 62.8183C86.7332 62.5442 85.6089 61.0124 85.1074 60.8971C84.438 60.8737 84.0006 60.8711 83.3343 60.9181C83.1984 61.6521 83.113 62.377 83.1511 63.1247C82.3894 63.0564 81.7566 63.0281 80.9949 63.0711C80.9521 61.7768 80.9483 60.4815 80.9827 59.187C81.9093 59.2592 87.2484 59.3967 87.7315 59.1302C87.8827 59.0465 87.8743 58.9708 87.9147 58.8186C87.8575 58.4891 87.6819 58.2991 87.3361 58.2859C85.244 58.2059 83.1053 58.4617 81.0178 58.2509C80.6247 57.871 79.7385 57.0455 79.55 56.5431Z" fill="white"/>
<path d="M91.1182 56.504C93.9202 56.6512 97.0534 56.4169 99.9844 56.5257C99.9966 57.0985 99.9851 57.7052 99.9836 58.281C97.7953 58.2448 95.607 58.2552 93.4194 58.3123C93.3798 59.311 93.4194 60.4315 93.4347 61.4392L94.9323 61.4041C96.6015 61.3385 98.3044 61.3556 99.9783 61.3493L99.9889 63.0957C98.4738 62.9743 92.5058 63.3576 91.5051 62.7661C90.9037 61.8446 91.1395 57.8464 91.1182 56.504Z" fill="white"/>
<path d="M103.594 56.5363C104.558 56.4682 106.033 56.5077 106.984 56.5986C108.002 57.2237 110.566 61.8328 111.655 63.1116C110.85 63.1016 109.692 63.0343 108.914 62.9193C108.477 62.2302 108.179 61.8708 107.49 61.4486C106.974 61.428 106.406 61.4553 105.885 61.4688C105.34 61.4754 104.981 61.4893 104.433 61.5487C103.464 63.4637 102.734 63.1257 100.755 63.1106C101.518 62.2228 102.566 60.7126 103.091 59.6704C103.77 59.6366 105.37 59.6261 106.106 59.5305C106.177 59.4646 106.237 59.4081 106.287 59.361C106.357 59.076 106.367 59.1892 106.262 58.9312C105.743 58.4964 104.369 59.0648 104.018 58.5421C104.044 58.2903 104.259 58.0821 104.427 57.8709C104.437 57.5896 103.766 57.0413 103.594 56.5363Z" fill="white"/>
<path d="M123.114 56.5144C126.484 56.4201 129.856 56.4208 133.225 56.5164C133.244 56.9209 133.325 57.9707 133.219 58.3157C132.681 58.4089 131.535 58.375 130.944 58.3737C130.965 58.787 131.008 59.4457 130.964 59.8463L130.981 60.6258C129.008 60.4696 126.69 60.6866 124.484 60.5508C124.414 59.9528 124.397 59.6517 124.419 59.0484C124.465 58.9428 124.472 58.2682 124.482 58.0849C123.911 57.6312 123.495 57.1372 123.114 56.5144Z" fill="white"/>
<path d="M130.894 58.9859C130.91 59.2227 130.927 59.6284 130.964 59.8463L130.981 60.6258C129.008 60.4697 126.69 60.6866 124.484 60.5509C124.414 59.9528 124.397 59.6517 124.419 59.0484C126.3 59.0895 129.028 59.098 130.894 58.9859Z" fill="white"/>
<path d="M124.482 58.0849C125.237 58.3122 126.328 58.2872 127.126 58.2848L131.291 58.2728C131.737 58.2751 132.807 58.258 133.219 58.3157C132.681 58.4089 131.535 58.3751 130.944 58.3737C130.965 58.787 131.008 59.4457 130.964 59.8463C130.927 59.6284 130.91 59.2227 130.894 58.9859C129.028 59.098 126.3 59.0895 124.419 59.0484C124.465 58.9429 124.472 58.2682 124.482 58.0849Z" fill="#4697F2"/>
<path d="M72.2437 56.5425C73.471 56.4941 74.6297 56.4485 75.8334 56.7175C77.1434 58.1104 78.9577 61.415 80.1407 63.1488C79.9163 63.1527 79.6919 63.1535 79.4668 63.1512C77.6013 63.1297 77.5433 62.7267 76.2834 61.4325C75.3166 61.3571 74.7471 61.3342 73.7798 61.3862C72.8361 61.4569 72.3958 62.3803 71.8839 63.0969C71.1506 63.13 70.3131 63.1052 69.5714 63.0994C70.3902 61.8542 70.8619 60.4474 72.1304 59.5916C72.6241 59.5829 75.1284 59.6287 75.2917 59.3796L75.2295 59.1999C74.6656 58.7473 73.1241 58.7449 72.4024 58.7096C72.6347 58.3469 72.9107 58.0029 73.174 57.6613C72.8776 57.3961 72.2315 56.9222 72.2437 56.5425Z" fill="white"/>
<path d="M124.495 61.2034C126.802 61.5723 130.649 61.3034 133.184 61.3935C133.239 61.9437 133.23 62.5897 133.235 63.1494C132.597 63.2091 131.218 63.1502 130.534 63.1433C128.518 63.1292 126.501 63.093 124.485 63.0347L124.495 61.2034Z" fill="white"/>
<path d="M9.29714 61.8383C9.32034 62.3975 9.46682 64.0756 8.50479 64.0415C7.70755 64.0134 5.03933 64.3922 4.93318 63.2918C4.79858 61.8964 4.93397 60.3122 4.85972 58.8896C4.80816 57.9013 3.64514 57.5152 3.47322 56.5888C3.33923 55.3626 5.16346 55.5455 5.89385 55.5426C6.63299 55.5397 7.28742 55.5306 7.9924 55.5092C9.15281 56.1675 9.91852 57.2024 10.9992 57.9279C11.3472 58.0459 11.784 57.6925 12.0039 57.4549C13.5828 55.7498 14.9237 54.9637 17.314 55.8941C19.4053 55.2952 21.7905 55.631 23.9509 55.5483C24.7009 55.5195 25.5008 55.5766 26.2533 55.6006C27.3911 55.6368 28.5175 55.5491 29.6582 55.5467L39.1286 55.5762C41.1469 55.5795 43.1749 55.5436 45.1952 55.5569C46.3789 55.5646 47.5976 55.4898 48.7768 55.5744C49.5866 56.783 49.2731 58.7598 49.2146 60.2793C50.5317 60.4924 52.8331 60.4227 54.2115 60.4147C54.1218 59.7056 54.1413 59.5458 54.1803 58.8235C53.5979 57.6587 52.8841 57.7058 52.6723 56.4517L52.7552 56.2047C52.82 56.0064 52.8538 55.8423 53.0289 55.7074C53.3207 55.4826 63.523 55.4779 64.492 55.6106C65.0056 56.8605 64.9833 57.8655 64.5509 59.1381C63.9797 59.2412 62.9323 59.0454 62.5654 59.5355C62.2674 60.5385 63.7365 60.2838 64.31 60.4755C65.0521 60.7236 65.0611 63.8931 64.2543 63.992C63.4795 64.087 62.3205 64.0643 61.4903 64.0621L54.5743 64.0088L48.5873 64.0559C47.5494 64.055 46.0309 64.221 45.1493 63.7107C45.1414 63.5325 45.0933 63.3217 45.0756 63.1374C44.9615 61.9481 44.9811 60.734 44.9697 59.5386C44.9746 59.1049 44.9917 58.9178 44.8761 58.5053L44.7862 58.5066C44.5803 59.13 44.588 59.6445 44.6435 60.3015C44.623 61.2316 44.8306 63.2843 44.2113 63.9291C43.5884 64.1268 41.9785 64.2086 41.376 64.0634C39.6995 63.659 40.8175 59.5998 40.2136 58.475L40.0868 58.5378C39.7477 59.4478 40.1873 61.1578 39.8995 62.2595C39.4882 63.8339 38.3122 64.0696 36.8865 64.0662C34.9125 64.0616 33.0388 64.0515 31.071 64.0515C30.254 64.0444 29.3439 64.0825 28.5507 63.8963C28.3094 63.5155 28.1921 63.3398 28.2 62.8825C27.9586 62.8131 27.1562 63.7715 26.8516 63.8335C24.5771 64.2968 22.001 64.0056 19.6706 64.0419C18.9231 64.0536 18.1636 63.8081 17.4443 63.8185C16.7033 63.829 15.9984 64.1134 15.2481 64.1014C13.0786 64.1802 13.0402 63.7813 13.1826 61.8428C11.3278 63.5722 11.0906 63.6644 9.29714 61.8383ZM23.8574 60.3398C23.9 60.0211 23.9405 59.702 23.9787 59.3828C23.5078 59.1154 21.479 59.1765 20.8817 59.224C20.6279 59.4945 20.6412 60.0302 20.8922 60.1618C21.5765 60.5204 23.0844 60.3431 23.8574 60.3398Z" fill="#4697F2"/>
<path d="M27.8116 56.5228C31.5719 56.4557 35.3721 56.5876 39.0699 56.517C39.0894 57.7294 39.2541 58.5918 38.7956 59.6555C38.696 59.8863 39.5191 61.8806 38.7066 62.4756C38.5135 62.7189 37.9097 62.9373 37.5951 62.9834C36.7356 63.1091 35.7623 63.1072 34.8895 63.1182C33.0307 63.1419 31.1717 63.1296 29.3134 63.0814C29.3099 62.2388 29.301 61.3963 29.2868 60.5538C29.1897 60.4075 29.1743 58.598 29.1322 58.1509C28.7065 57.6546 28.1653 57.0561 27.8116 56.5228Z" fill="white"/>
<path d="M29.1322 58.1509C30.4708 58.1736 36.0871 57.7304 36.8097 58.4672C36.8755 58.5342 36.8709 58.5338 36.891 58.6348C36.8042 58.8278 36.8024 58.8354 36.6279 58.9425C34.4172 59.1147 31.5373 59.0402 29.2816 59.0389C29.2846 59.3855 29.3124 60.2454 29.2868 60.5538C29.1897 60.4075 29.1743 58.598 29.1322 58.1509Z" fill="#4697F2"/>
<path d="M31.5825 60.6722C32.6208 60.6303 33.6976 60.6353 34.7383 60.6328C35.3636 60.6314 36.9023 60.471 37.0778 61.225L36.9985 61.3389C35.946 61.3504 32.5051 61.6218 31.7118 61.3672C31.5504 61.1703 31.5865 60.9435 31.5825 60.6722Z" fill="#4697F2"/>
<path d="M53.7823 56.5552C55.7549 56.5 57.728 56.4686 59.7014 56.4612C61.0893 56.4513 62.589 56.4154 63.9679 56.4948C63.9741 56.829 64.0376 57.9807 63.8794 58.1864L63.7575 58.2031C61.5501 58.5743 61.6345 58.0201 61.6821 60.6123C62.3351 61.498 63.1234 61.0996 63.9203 61.381C63.9488 61.9691 63.9525 62.6055 63.9672 63.1981C61.1512 63.0483 58.0701 63.2133 55.1317 63.0837L55.1019 61.3179L55.073 61.2504C55.1586 60.9318 55.1616 60.8935 55.1186 60.5666L55.1006 59.0356L55.0048 58.1014C54.535 57.588 54.159 57.1474 53.7823 56.5552Z" fill="white"/>
<path d="M55.1186 60.5667L56.1355 60.649C57.8041 60.6542 59.9673 60.6703 61.6183 60.6049L61.6821 60.6123C62.3351 61.498 63.1234 61.0996 63.9203 61.381C63.9488 61.9692 63.9525 62.6055 63.9672 63.1981C61.1512 63.0483 58.0701 63.2133 55.1317 63.0837L55.1019 61.3179L55.073 61.2504C55.1586 60.9318 55.1616 60.8935 55.1186 60.5667Z" fill="white"/>
<path d="M55.1186 60.5667L56.1355 60.649C57.8041 60.6542 59.9673 60.6703 61.6183 60.6049L61.6821 60.6123C62.3351 61.498 63.1234 61.0996 63.9203 61.381C63.6254 61.4441 62.6448 61.3587 62.2491 61.3745C59.8459 61.4705 57.5066 61.4074 55.1019 61.3179L55.073 61.2504C55.1586 60.9318 55.1616 60.8935 55.1186 60.5667Z" fill="#4697F2"/>
<path d="M55.1186 60.5667L56.1355 60.649C56.3797 60.7032 56.3345 60.6573 56.4956 60.8066C56.205 60.8291 55.7225 60.7981 55.5047 60.9339L55.5075 61.0562C55.6638 61.166 56.1768 61.1432 56.3954 61.1472C55.9079 61.2566 55.5661 61.245 55.073 61.2504C55.1586 60.9318 55.1616 60.8935 55.1186 60.5667Z" fill="#4697F2"/>
<path d="M56.4285 58.9731C56.9437 59.0717 60.8971 58.9733 61.6165 58.9628C61.6162 59.4901 61.6026 60.0835 61.6183 60.6049C59.9673 60.6703 57.8041 60.6542 56.1355 60.649L55.1186 60.5667L55.1006 59.0356C55.5047 58.9948 56.0151 58.9892 56.4285 58.9731Z" fill="white"/>
<path d="M55.0048 58.1014L55.3691 58.1593C58.2256 58.1302 60.9564 58.2104 63.7575 58.2031C61.5501 58.5743 61.6345 58.0201 61.6821 60.6123L61.6183 60.6049C61.6026 60.0835 61.6162 59.4901 61.6165 58.9628C60.8972 58.9733 56.9437 59.0717 56.4285 58.9731C56.0151 58.9892 55.5047 58.9948 55.1006 59.0356L55.0048 58.1014Z" fill="#4697F2"/>
<path d="M55.0048 58.1014L55.3691 58.1593L55.8276 58.2489C55.744 58.4164 55.7393 58.457 55.7441 58.6447C55.6403 58.7075 55.5477 58.7631 55.4474 58.8327C55.8668 58.9636 56.0516 58.8092 56.4285 58.9731C56.0151 58.9892 55.5047 58.9948 55.1006 59.0356L55.0048 58.1014Z" fill="#4697F2"/>
<path d="M15.4918 56.4575C15.6991 56.4339 16.1102 56.434 16.3341 56.4271C16.4511 58.6473 16.357 60.8211 16.3335 63.0413C15.5227 63.0877 14.8606 63.1251 14.0521 63.0981C14.0245 61.9355 14.0884 60.9188 14.161 59.7637C13.1882 60.4623 12.0803 61.438 11.0894 62.2025C10.1834 61.3572 9.16021 60.585 8.28626 59.715C8.40732 60.7291 8.42304 62.0171 8.18879 63.0122C7.77968 63.3855 6.55276 63.2098 6.0334 63.1645C5.86599 61.9448 5.95427 59.4592 5.9718 58.1163C5.48382 57.7783 4.926 57.0335 4.55058 56.5547L4.5929 56.5525C8.64309 56.3742 8.24359 56.797 11.1228 59.4377C12.9115 58.3478 13.3923 56.7814 15.4918 56.4575Z" fill="white"/>
<path d="M20.1969 56.5455C22.0809 56.4955 25.1892 56.4318 26.973 56.6479C27.0475 56.9425 27.1049 57.2413 27.1446 57.5427C27.2746 58.6001 27.4686 62.002 26.8591 62.7835C26.1211 63.1647 23.4279 63.1098 22.399 63.1129C21.6094 63.1152 18.5362 63.188 17.8844 62.6911C17.4104 62.3299 17.4765 60.8006 17.479 60.1725L17.4811 59.221C18.3161 59.1487 18.9426 59.1161 19.7799 59.1121L19.8145 61.3385C21.3187 61.4623 23.4247 61.3986 24.9761 61.3918C24.9696 60.4092 25.0235 59.262 25.0426 58.2615C22.371 58.3055 20.0133 58.3056 17.3353 58.2489C17.5005 57.5958 17.5558 57.3359 17.9376 56.7855C18.6105 56.5893 19.4911 56.5759 20.1969 56.5455Z" fill="white"/>
<path d="M44.5868 56.5484C45.8338 56.4549 47.1353 56.507 48.3901 56.5364L48.3768 61.3343C49.571 61.3854 52.8528 61.4972 53.9314 61.3297C53.9183 61.9126 53.9253 62.5087 54.0325 63.0816C53.2858 63.0218 51.9887 63.0794 51.1933 63.0907C49.4935 63.1258 47.7934 63.1346 46.0935 63.1172C46.0835 61.584 46.1323 59.6824 46.0241 58.1847C45.8383 57.9769 44.6254 56.6639 44.5868 56.5484Z" fill="white"/>
<path d="M40.1447 56.5399C41.1739 56.4666 42.6073 56.5385 43.6846 56.5344C43.7749 58.7601 43.7674 60.9887 43.662 63.2138C42.8978 63.1142 42.1168 63.0534 41.3463 63.0793C41.3986 61.6302 41.3998 60.1472 41.364 58.6989C41.3376 57.6298 40.5552 57.3074 40.1447 56.5399Z" fill="white"/>
<path d="M16.872 10.4198C17.8421 10.399 20.326 11.2263 21.386 11.5198C22.6019 11.8581 23.8286 12.1566 25.0639 12.4147C26.0045 13.3551 25.8661 13.5634 25.3116 14.7612C22.8687 20.0504 21.0608 25.6087 19.3005 31.1572C18.8995 32.2233 17.8661 36.9123 17.225 37.5609C15.3649 39.443 11.7756 42.4654 9.85815 44.2638C9.44453 44.5723 9.02504 45.0104 8.6895 45.2896C8.05201 45.8201 5.56168 48.6459 4.63326 47.4288C4.00471 46.6047 5.4242 42.5014 5.65672 41.5619C7.60551 33.6873 10.2214 25.9415 13.16 18.3918C13.4309 17.6959 13.6252 16.7688 13.9582 16.1243C14.8426 14.4119 15.3453 12.5821 16.1942 10.8683C16.2684 10.7183 16.7164 10.5019 16.872 10.4198Z" fill="#4697F2"/>
<path d="M17.0994 11.577C18.3063 11.4291 23.296 13.1557 24.8463 13.4658C23.6487 15.5131 22.4297 18.7039 21.6158 20.9674C20.8807 23.0119 19.981 25.3417 19.3501 27.4125L17.6401 33.1005C17.0718 34.9656 16.8446 36.7541 15.2819 38.0635C13.4586 39.5914 11.7014 41.2233 9.94905 42.8326C9.26928 43.4221 6.37187 45.975 5.75132 46.2635L5.62801 46.2043C5.56653 45.9404 6.02392 44.3185 6.11566 43.8854C6.94016 39.9925 8.09895 36.283 9.28668 32.4968C10.8831 27.2655 12.715 22.1097 14.7768 17.0452C15.3446 15.6372 16.3859 12.7713 17.0994 11.577Z" fill="white"/>
<path d="M61.2465 23.653C64.3037 23.5482 67.1413 23.7595 70.1436 23.7961C71.6831 23.8162 73.2227 23.8261 74.7622 23.8256C75.805 23.8233 78.6112 23.7115 79.4614 23.9758C79.9568 25.6016 80.3758 29.5675 80.3552 31.3264C80.198 31.5747 80.1369 31.699 79.898 31.8816C79.4225 32.0207 70.8698 31.9252 70.1751 31.8215C70.2951 33.7632 70.2163 36.5882 70.2167 38.5882C70.2086 39.6346 70.6953 43.7276 69.3235 43.9073C67.7131 44.1182 65.8368 44.4414 64.2327 44.6543C62.8783 44.8341 58.9945 45.9208 57.9456 45.3945C57.383 44.5515 58.1968 38.5936 58.2943 37.3976C58.6441 33.1058 58.8951 28.8 59.257 24.5091C59.3324 23.6163 60.6086 23.672 61.2465 23.653Z" fill="#4697F2"/>
<path d="M60.1887 24.8421L71.477 24.8641C73.9203 24.8767 76.4389 24.8579 78.8737 24.9589C78.9019 25.6488 79.2912 30.8395 79.2424 30.9493L79.4569 30.9962L79.4103 31.0426C78.6401 31.2087 78.5867 31.2483 77.8448 31.0506L77.9463 31.0466C77.6922 30.9695 77.5685 30.9477 77.3113 30.9067C74.584 30.8382 71.8561 30.8056 69.128 30.8089C68.8415 34.7029 69.2554 39.0988 69.0251 42.9013C67.2617 43.0868 65.9539 43.4415 64.2463 43.7505C62.4563 44.0695 60.6482 44.2765 58.8326 44.3702C58.8204 38.1091 60.0255 31.1899 60.1887 24.8421Z" fill="white"/>
<path d="M77.3113 30.9067C77.8578 30.8968 78.7218 30.8602 79.2424 30.9493L79.4569 30.9962L79.4103 31.0426C78.6402 31.2087 78.5867 31.2483 77.8448 31.0506L77.9464 31.0466C77.6922 30.9695 77.5685 30.9477 77.3113 30.9067Z" fill="#4697F2"/>
<path d="M60.9949 14.7363C70.256 14.8419 79.5301 14.7409 88.7925 14.7385C90.632 14.738 98.7898 14.5278 100.023 14.9353C100.214 15.1391 100.477 15.4302 100.473 15.7233C100.462 16.4681 96.8358 20.0968 96.1054 20.8067C95.7711 21.1228 93.8125 23.3181 93.5622 23.3576C90.9525 23.77 87.9681 23.4044 85.3333 23.3489C82.9832 23.2995 80.6651 23.2431 78.3303 23.1828L65.7845 22.8633C64.8827 22.8382 60.2503 22.9132 59.7767 22.4898C59.3693 21.7363 59.6336 20.3489 59.7307 19.5085C59.8979 18.0622 59.9179 16.6243 60.0485 15.1774C60.3843 14.9941 60.6409 14.8844 60.9949 14.7363Z" fill="#4697F2"/>
<path d="M70.6248 15.6805L90.2465 15.6717C92.0417 15.6727 93.8369 15.6856 95.6322 15.7105C96.7824 15.7244 98.3212 15.7744 99.4432 15.6735C98.9203 16.1587 98.1143 17.0891 97.6213 17.6366C96.6633 18.7209 95.681 19.7837 94.6758 20.824C94.1354 21.3832 93.55 22.0506 92.8981 22.4543C91.7486 22.3839 90.4075 22.3925 89.242 22.3773L72.6837 22.0105C68.7407 21.9542 64.5487 22.0118 60.6292 21.8464C60.6347 19.6907 60.8617 17.8062 60.92 15.7176C63.9091 15.8062 67.5776 15.6915 70.6248 15.6805Z" fill="white"/>
<path d="M122.198 15.0199C123.438 14.9724 124.208 17.7239 124.616 18.7267C125.555 21.02 126.452 23.3304 127.306 25.6567C129.361 31.4072 131.094 37.2685 132.498 43.2132C132.701 44.0342 133.558 46.6244 133.236 47.3212C131.766 48.6065 129.803 45.9712 128.735 45.0837C126.136 43.1171 123.714 40.3213 121.119 38.2706C119.92 37.3228 119.236 34.0567 118.732 32.5095C117.984 30.2702 117.167 28.0551 116.281 25.8672C116.062 25.311 114.992 22.7488 115.074 22.3019C115.161 21.826 120.711 16.0925 121.458 15.4343C121.674 15.2436 121.936 15.1328 122.198 15.0199Z" fill="#4697F2"/>
<path d="M122.296 16.1608L122.435 16.2547C123.601 18.6837 124.569 21.3135 125.51 23.8413C125.933 24.9761 126.407 26.1049 126.809 27.2452C128.218 31.3185 129.467 35.4459 130.553 39.6178C130.979 41.2105 131.975 45.0104 132.111 46.5448C131.292 45.9909 129.541 44.3965 128.741 43.6808C127.594 42.7475 126.591 41.6542 125.458 40.64C124.536 39.6311 122.344 38.3193 121.62 37.2918C120.82 36.1573 119.907 32.857 119.484 31.5719C118.901 29.8348 118.297 28.1046 117.673 26.382C117.252 25.2069 116.309 23.3492 116.101 22.3477C118.161 20.3483 120.256 18.0498 122.296 16.1608Z" fill="white"/>
<path d="M51.8454 48.7945C53.3699 48.6554 54.9905 48.1559 56.5091 47.8641C58.6136 47.4598 60.6988 47.123 62.8156 46.7607C64.9827 46.3899 67.6049 45.4359 69.8154 45.7382C72.1268 46.0545 74.4231 46.7239 76.7335 47.0739C79.5164 47.4977 82.2489 48.1039 85.0066 48.6646C87.3369 49.0715 88.9741 49.2745 91.338 49.8846C92.9935 50.0596 95.3284 50.5467 96.9832 50.8636C97.2961 51.3263 97.5121 51.59 97.4129 52.166C97.3343 52.6221 96.9175 52.8507 96.497 52.8452L96.3764 52.9244C91.7387 52.8565 86.9576 52.9956 82.3107 53.0099C79.563 52.8853 76.0727 53.0471 73.2453 53.0392L50.7332 52.9586L44.4293 52.9382C43.6368 52.9363 41.2878 53.0852 40.6618 52.6519C39.9353 52.149 40.1921 51.0018 41.2397 50.7515C42.7419 50.3926 44.3369 50.2716 45.8532 49.9529C47.8303 49.5648 49.8498 48.996 51.8454 48.7945Z" fill="#4697F2"/>
<path d="M53.7069 49.3319C55.3068 48.9582 57.059 48.8729 58.6555 48.5098C61.0484 47.9655 63.2861 47.3272 65.7467 47.1248C66.8386 47.035 67.98 46.728 69.0986 46.7674C71.0118 46.8598 73.0149 47.3168 74.9187 47.5764C75.8192 47.6991 76.7694 48.0765 77.6792 48.2117C80.8002 48.709 83.8793 49.2659 86.9614 49.9692C87.7903 50.1583 88.7955 50.2115 89.6588 50.3615C90.19 50.3618 90.387 50.3776 90.909 50.4727C91.796 50.8107 92.4852 51.5015 93.4324 51.567C93.5118 51.5725 93.5538 51.6049 93.6156 51.6496C93.3981 51.9012 92.0318 52.0256 91.6509 52.0523C91.5212 52.0614 91.3907 52.0695 91.2601 52.0764C89.2703 52.0536 87.0377 52.1371 85.0891 52.0575C83.9838 52.1149 82.3993 52.0642 81.2651 52.0644L73.7673 52.0774L57.8298 52.064C55.8407 52.0558 53.8486 52.093 51.8619 52.0618C51.0393 51.8855 48.9579 52.0002 48.0219 51.8431C47.8207 51.8093 47.7936 51.2709 47.6236 51.155C47.5438 51.1006 47.4657 50.9761 47.4071 50.8883L47.4541 50.7153C47.6725 50.5335 48.1664 50.4311 48.5149 50.2915C50.2613 50.0647 51.9944 49.7443 53.7069 49.3319Z" fill="#F7CB4E"/>
<path d="M89.6588 50.3615C90.19 50.3618 90.387 50.3776 90.909 50.4727C91.796 50.8107 92.4852 51.5015 93.4324 51.567C93.5118 51.5725 93.5538 51.6049 93.6156 51.6496C93.3981 51.9012 92.0318 52.0256 91.6509 52.0523C91.5212 52.0614 91.3907 52.0695 91.2601 52.0764C89.2703 52.0536 87.0377 52.1371 85.0891 52.0575C86.5691 51.8604 88.8032 52.1717 90.2778 51.8215C90.474 51.7481 90.6526 51.6373 90.7205 51.4358C90.9174 50.8581 90.0809 50.4889 89.6588 50.3615Z" fill="#F7CB4E"/>
<path d="M51.8619 52.0618C49.2361 52.2692 46.2356 51.9312 43.5754 52.1578C43.0656 52.2012 41.6581 52.3125 41.3003 51.9426L41.3181 51.7653C41.8152 51.2218 42.3852 51.5551 42.9778 51.3653C44.8888 50.7535 46.5321 50.524 48.5149 50.2915C48.1663 50.4311 47.6725 50.5335 47.4541 50.7153L47.407 50.8883C47.4657 50.9761 47.5437 51.1006 47.6236 51.155C47.7936 51.2709 47.8207 51.8093 48.0219 51.8431C48.9579 52.0002 51.0393 51.8855 51.8619 52.0618Z" fill="#F7CB4E"/>
<path d="M91.338 49.8846C92.9935 50.0596 95.3284 50.5467 96.9832 50.8636C97.2961 51.3263 97.5121 51.59 97.4129 52.166C97.3343 52.6221 96.9175 52.8507 96.497 52.8452L96.0542 52.8007L96.0581 52.7535L96.2863 52.7173C96.2397 52.6816 96.055 52.6298 95.9863 52.6076L95.9848 52.5185C96.3016 52.4609 96.7946 52.4215 96.8397 52.0615C96.6206 51.4954 96.152 51.5512 95.6673 51.5714C94.8399 51.3477 93.9911 51.1709 93.1637 50.9489C92.4722 50.7635 91.9242 50.5377 91.209 50.4314C91.3113 50.1729 91.2929 50.2843 91.2235 49.966L91.338 49.8846Z" fill="#4697F2"/>
<path d="M91.209 50.4314C91.9242 50.5377 92.4722 50.7635 93.1637 50.9489C93.9911 51.1709 94.8399 51.3477 95.6673 51.5714C95.8375 51.8397 95.8718 51.7919 95.8321 52.0551C95.4742 52.3725 91.8608 52.1505 91.2601 52.0764C91.3907 52.0695 91.5212 52.0615 91.6509 52.0523C92.0318 52.0256 93.3981 51.9012 93.6156 51.6496C93.5538 51.6049 93.5118 51.5725 93.4324 51.567C92.4852 51.5015 91.796 50.8107 90.909 50.4727L91.209 50.4314Z" fill="#F7CB4E"/>
<path d="M44.6435 60.3015C44.7057 60.0414 44.7236 59.4314 44.7735 59.0829L44.8473 59.0954L44.9697 59.5386C44.9811 60.734 44.9615 61.9481 45.0756 63.1374C45.0933 63.3217 45.1414 63.5325 45.1493 63.7106L45.07 63.7748L45.102 63.8896C44.8882 64.0328 44.8002 64.0565 44.5085 63.9986C44.4089 63.9779 44.3098 63.9547 44.2113 63.9291C44.8306 63.2843 44.623 61.2316 44.6435 60.3015Z" fill="#4697F2"/>
<path d="M122.847 62.6431C123.617 61.0121 123.025 59.6322 123.293 58.4358C123.716 58.6785 123.549 62.3807 123.437 62.9978C123.347 63.2446 123.457 63.3307 123.253 63.8238C123.039 63.413 123.551 63.5765 122.853 62.9409L122.847 62.6431Z" fill="#4697F2"/>
<path d="M44.6435 60.3015C44.588 59.6445 44.5803 59.13 44.7862 58.5066L44.8761 58.5052C44.9917 58.9178 44.9746 59.1049 44.9697 59.5386L44.8472 59.0954L44.7735 59.0829C44.7236 59.4314 44.7057 60.0414 44.6435 60.3015Z" fill="#4697F2"/>
</svg>
