<svg width="20" height="20" viewBox="0 0 20 20" fill="none" xmlns="http://www.w3.org/2000/svg">
<path d="M9.16732 1.66602C7.51914 1.66602 5.90798 2.15476 4.53757 3.07044C3.16716 3.98611 2.09906 5.2876 1.46833 6.81032C0.837595 8.33304 0.672567 10.0086 0.994111 11.6251C1.31565 13.2416 2.10933 14.7265 3.27477 15.8919C4.4402 17.0573 5.92506 17.851 7.54157 18.1726C9.15808 18.4941 10.8336 18.3291 12.3563 17.6983C13.8791 17.0676 15.1806 15.9995 16.0962 14.6291C17.0119 13.2587 17.5007 11.6475 17.5007 9.99935C17.5007 8.905 17.2851 7.82137 16.8663 6.81032C16.4475 5.79927 15.8337 4.88061 15.0599 4.10679C14.2861 3.33297 13.3674 2.71914 12.3563 2.30035C11.3453 1.88156 10.2617 1.66602 9.16732 1.66602ZM9.16732 16.666C7.84878 16.666 6.55985 16.275 5.46352 15.5425C4.36719 14.8099 3.51271 13.7687 3.00812 12.5506C2.50354 11.3324 2.37152 9.99195 2.62875 8.69875C2.88599 7.40554 3.52093 6.21765 4.45328 5.2853C5.38563 4.35295 6.57351 3.71802 7.86672 3.46078C9.15993 3.20355 10.5004 3.33557 11.7185 3.84015C12.9367 4.34474 13.9779 5.19922 14.7105 6.29555C15.443 7.39188 15.834 8.68081 15.834 9.99935C15.834 11.7675 15.1316 13.4632 13.8814 14.7134C12.6311 15.9636 10.9354 16.666 9.16732 16.666ZM10.0007 9.94102V5.83268C10.0007 5.61167 9.91286 5.39971 9.75658 5.24343C9.6003 5.08715 9.38834 4.99935 9.16732 4.99935C8.94631 4.99935 8.73435 5.08715 8.57807 5.24343C8.42179 5.39971 8.33399 5.61167 8.33399 5.83268V9.99935C8.33399 9.99935 8.33399 10.0577 8.33399 10.091C8.31348 10.2604 8.34548 10.432 8.42565 10.5827L9.67565 12.7493C9.78616 12.9416 9.96853 13.0821 10.1826 13.14C10.3967 13.1978 10.625 13.1682 10.8173 13.0577C11.0096 12.9472 11.1501 12.7648 11.2079 12.5507C11.2658 12.3366 11.2362 12.1083 11.1257 11.916L10.0007 9.94102Z" fill="#4697F2"/>
</svg>
