<svg width="48" height="48" viewBox="0 0 48 48" fill="none" xmlns="http://www.w3.org/2000/svg">
<path d="M41.318 12.5186H26.8704V35.1503L33.0253 35.2915C33.6668 33.7195 35.2098 32.6113 37.0124 32.6113C38.8849 32.6113 40.4774 33.8068 41.0701 35.476L41.318 35.4817H47.0588V24.0002L41.318 12.5186Z" fill="#F7CB4E"/>
<path d="M13.858 32.6114C15.7325 32.6114 17.3264 33.8097 17.9176 35.4818H27.0102L26.8704 12.5187V6.77783H0.941162C0.941162 8.89802 2.09109 10.7488 3.80074 11.743L3.81156 35.4817H9.34756H9.79829C10.3894 33.8097 11.9834 32.6114 13.858 32.6114Z" fill="#FD6050"/>
<path d="M37.0124 41.2225C39.3903 41.2225 41.318 39.2948 41.318 36.9169C41.318 34.539 39.3903 32.6113 37.0124 32.6113C34.6345 32.6113 32.7068 34.539 32.7068 36.9169C32.7068 39.2948 34.6345 41.2225 37.0124 41.2225Z" fill="#4697F2"/>
<path d="M26.8704 12.5186V6.77783H0.941162C0.941162 8.90338 2.09721 10.7577 3.81401 11.7501L3.81156 11.7505V12.5185C3.81156 14.6437 4.96723 16.4978 6.68356 17.4904L6.68187 17.4913V18.2593C6.68187 21.4299 9.25213 24.0001 12.4227 24.0001H21.0339H26.8801L26.8704 12.5186Z" fill="white"/>
<path d="M13.858 41.2225C16.2359 41.2225 18.1636 39.2948 18.1636 36.9169C18.1636 34.539 16.2359 32.6113 13.858 32.6113C11.4801 32.6113 9.55237 34.539 9.55237 36.9169C9.55237 39.2948 11.4801 41.2225 13.858 41.2225Z" fill="#4697F2"/>
<path d="M13.1523 18.2594V17.4914L13.154 17.4905C11.4376 16.498 10.282 14.6439 10.282 12.5186V11.7506L10.2844 11.7502C8.56761 10.7578 7.41156 8.90348 7.41156 6.77793H26.8705L0.941162 6.77783C0.941162 8.90338 2.09721 10.7577 3.81401 11.7501L3.81156 11.7505V12.5185C3.81156 14.6437 4.96723 16.4978 6.68356 17.4904L6.68187 17.4913V18.2593C6.68187 21.4299 9.25213 24.0001 12.4227 24.0001H18.893C15.7225 24.0002 13.1523 21.43 13.1523 18.2594Z" fill="#D2DCFD"/>
<path d="M32.7068 12.5186V19.5318C32.7068 21.9996 34.7074 24.0002 37.1751 24.0002H47.0588L41.318 12.5186H32.7068Z" fill="#D2DCFD"/>
<path d="M47.0588 30.6822H42.7532C42.2335 30.6822 41.812 30.2608 41.812 29.741C41.812 29.2212 42.2335 28.7998 42.7532 28.7998H47.0588C47.5785 28.7998 48 29.2212 48 29.741C48 30.2608 47.5785 30.6822 47.0588 30.6822Z" fill="#052A75"/>
<path d="M47.994 23.896C47.993 23.8874 47.9912 23.879 47.99 23.8704C47.9865 23.8444 47.9821 23.8186 47.9765 23.7933C47.9743 23.7837 47.9716 23.7743 47.9691 23.7648C47.9629 23.7405 47.9559 23.7167 47.9478 23.6933C47.9445 23.6837 47.9409 23.6742 47.9373 23.6647C47.9284 23.6413 47.9186 23.6185 47.9079 23.5961C47.9052 23.5906 47.9033 23.5847 47.9005 23.5791L42.1597 12.0975C42.0003 11.7786 41.6744 11.5772 41.3179 11.5772H27.8116V6.7776C27.8116 6.528 27.7124 6.28857 27.5359 6.1121C27.3593 5.93563 27.12 5.83643 26.8704 5.83643L0.941176 5.83652C0.421365 5.83652 0 6.25788 0 6.7777C0 9.04612 1.13722 11.0528 2.8704 12.2613V12.5185V35.4816C2.8704 36.0014 3.29186 36.4228 3.81158 36.4228H8.6352C8.61995 36.5855 8.6112 36.7501 8.6112 36.9168C8.6112 39.8099 10.9649 42.1636 13.8579 42.1636C16.751 42.1636 19.1047 39.8099 19.1047 36.9168C19.1047 36.7501 19.096 36.5855 19.0807 36.4228H31.7896C31.7744 36.5855 31.7656 36.7501 31.7656 36.9168C31.7656 39.8099 34.1193 42.1636 37.0123 42.1636C39.9054 42.1636 42.2591 39.8099 42.2591 36.9168C42.2591 36.7501 42.2504 36.5855 42.2351 36.4228H47.0588C47.5785 36.4228 48 36.0014 48 35.4816V24C48 23.9648 47.9977 23.9302 47.994 23.896ZM45.536 23.0588H37.1752C35.2304 23.0588 33.6481 21.4766 33.6481 19.5317V13.4596H40.7363L45.536 23.0588ZM13.8579 40.2812C12.0027 40.2812 10.4936 38.772 10.4936 36.9168C10.4936 35.0616 12.0027 33.5524 13.8579 33.5524C15.713 33.5524 17.2223 35.0616 17.2223 36.9168C17.2223 38.772 15.713 40.2812 13.8579 40.2812ZM13.8579 31.67C11.82 31.67 10.051 32.8388 9.18259 34.5404H4.75275V30.682H8.11718C8.63689 30.682 9.05835 30.2606 9.05835 29.7408C9.05835 29.221 8.63689 28.7996 8.11718 28.7996H4.75275V17.1604C5.05384 17.4716 5.38456 17.7537 5.7408 18.0021V18.2593C5.7408 21.9437 8.73835 24.9413 12.4228 24.9413H21.0339C21.5536 24.9413 21.9751 24.5199 21.9751 24.0001C21.9751 23.4803 21.5536 23.0589 21.0339 23.0589H12.4228C10.0036 23.0589 7.99784 21.2595 7.67087 18.9289C8.26805 19.1046 8.89911 19.2005 9.55238 19.2005H18.1635C18.6832 19.2005 19.1047 18.7791 19.1047 18.2593C19.1047 17.7395 18.6832 17.3181 18.1635 17.3181H9.55238C7.13318 17.3181 5.12744 15.5187 4.80047 13.1882C5.39774 13.3639 6.02871 13.4598 6.68198 13.4598H15.2931C15.8128 13.4598 16.2343 13.0384 16.2343 12.5186C16.2343 11.9988 15.8128 11.5774 15.2931 11.5774H6.68198C4.35755 11.5774 2.41365 9.91633 1.97496 7.71897L25.9292 7.71887V12.5185V34.5404H18.5334C17.6648 32.8387 15.8959 31.67 13.8579 31.67ZM37.0124 40.2812C35.1573 40.2812 33.6481 38.772 33.6481 36.9168C33.6481 35.0616 35.1573 33.5524 37.0124 33.5524C38.8676 33.5524 40.3768 35.0616 40.3768 36.9168C40.3768 38.772 38.8676 40.2812 37.0124 40.2812ZM41.6878 34.5404C40.8194 32.8388 39.0504 31.67 37.0124 31.67C34.9744 31.67 33.2055 32.8388 32.337 34.5406C32.3359 34.5406 32.3348 34.5404 32.3336 34.5404H27.8116V13.4596H31.7657V19.5317C31.7657 22.5144 34.1924 24.9412 37.1752 24.9412H46.1176V34.5404H41.6878Z" fill="#052A75"/>
</svg>
