<svg width="48" height="48" viewBox="0 0 48 48" fill="none" xmlns="http://www.w3.org/2000/svg">
<g clip-path="url(#clip0_1_406)">
<path fill-rule="evenodd" clip-rule="evenodd" d="M6.11475 39.5319L8.93878 31.0599V9.88013L7.05609 5.64412V0.9375H40.9438V5.64412L39.0611 9.88013V31.0599C39.6887 32.9426 41.2576 37.6493 41.8852 39.5319V47.0625H6.11475C6.11475 42.199 6.11475 44.3955 6.11475 39.5319Z" fill="#BC9AF4"/>
<path fill-rule="evenodd" clip-rule="evenodd" d="M6.11475 39.5319L8.93878 31.0599V9.88013L7.05609 5.64412V0.9375H26.3716C21.7814 6.83719 19.0464 14.2517 19.0464 22.3057C19.0464 31.9898 23.0001 40.7497 29.3797 47.0625H6.11475C6.11475 42.199 6.11475 44.3955 6.11475 39.5319Z" fill="#4697F2"/>
<path fill-rule="evenodd" clip-rule="evenodd" d="M39.0612 31.0601H8.93878L6.11475 39.5321V47.0626H41.8852V39.5321C41.2577 37.6494 39.6888 32.9427 39.0612 31.0601Z" fill="white"/>
<path fill-rule="evenodd" clip-rule="evenodd" d="M20.1562 31.0601H8.93878L6.11475 39.5321V47.0626H29.3797C24.9921 42.7208 21.7515 37.2219 20.1562 31.0601Z" fill="#D2DCFD"/>
<path fill-rule="evenodd" clip-rule="evenodd" d="M41.8852 39.5317H23.5991L14.9297 41.6026L6.11484 39.5317V47.0623H41.8852V39.5317Z" fill="#F7CB4E"/>
<path fill-rule="evenodd" clip-rule="evenodd" d="M23.5991 39.5317H6.11475V47.0623H29.3797C27.1285 44.8344 25.1788 42.3023 23.5991 39.5317Z" fill="#FD8F01"/>
<path fill-rule="evenodd" clip-rule="evenodd" d="M15.9987 14.1162H32.0013C33.5545 14.1162 34.8252 15.3872 34.8252 16.9401V24.0002C34.8252 25.5531 33.5542 26.8241 32.0013 26.8241H15.9987C14.4457 26.8241 13.1748 25.5533 13.1748 24.0002V16.9402C13.1748 15.387 14.4455 14.1162 15.9987 14.1162Z" fill="#67CCD1"/>
<path fill-rule="evenodd" clip-rule="evenodd" d="M15.9987 14.1162H20.0151C19.3821 16.7429 19.0464 20.1296 19.0464 22.3057C19.0464 24.482 19.1453 25.3449 19.337 26.8241H15.9987C14.4457 26.8241 13.1748 25.5533 13.1748 24.0002V16.9402C13.1748 15.387 14.4455 14.1162 15.9987 14.1162Z" fill="#27A2CC"/>
<path fill-rule="evenodd" clip-rule="evenodd" d="M13.1748 22.7297V24.0002C13.1748 25.5533 14.4457 26.8241 15.9987 26.8241H25.6162L34.8253 16.9401C34.8253 15.3872 33.5545 14.1162 32.0014 14.1162L21.9787 20.9063L19.1994 19.3017L13.1748 22.7297Z" fill="#F7CB4E"/>
<path fill-rule="evenodd" clip-rule="evenodd" d="M13.1748 22.2589V24C13.1748 25.5532 14.4457 26.824 15.9987 26.824H19.337C19.1453 25.3449 19.0464 23.5795 19.0464 22.3056C19.0464 21.0317 19.114 20.296 19.1993 19.3015L18.748 19.041L13.1748 22.2589Z" fill="#FD8F01"/>
<path fill-rule="evenodd" clip-rule="evenodd" d="M8.93878 9.88004H39.0612L40.9439 5.64404H23.2843L15.2121 7.00895L7.05609 5.64404L8.93878 9.88004Z" fill="white"/>
<path fill-rule="evenodd" clip-rule="evenodd" d="M8.93878 9.88004H21.3292C21.8875 8.41848 22.5424 7.00351 23.2843 5.64404H7.05609L8.93878 9.88004Z" fill="#D2DCFD"/>
<path d="M42.7746 39.2355L39.9987 30.9078V10.0791L41.8006 6.02484C41.8538 5.90494 41.8814 5.77519 41.8814 5.64403V0.9375C41.8814 0.419719 41.4617 0 40.9439 0H7.05609C6.53831 0 6.11859 0.419719 6.11859 0.9375V5.64412C6.11859 5.77528 6.14606 5.90503 6.1994 6.02494L8.00128 10.0792V30.9079L5.22543 39.2356C5.19356 39.3312 5.17734 39.4312 5.17734 39.532V47.0625C5.17734 47.5803 5.59706 48 6.11484 48H41.8852C42.403 48 42.8227 47.5803 42.8227 47.0625V39.5319C42.8227 39.4313 42.8064 39.3311 42.7746 39.2355ZM9.87628 30.1224V10.8176H38.1237V30.1224H9.87628ZM7.99359 5.44519V1.875H40.0064V5.44519L38.4519 8.94263H9.54806L7.99359 5.44519ZM40.9476 46.125H7.05234V39.6841L9.61453 31.9974H38.3855L40.9476 39.6841V46.125Z" fill="#052A75"/>
<path d="M32.0013 13.1787H15.9987C13.9246 13.1787 12.2372 14.8661 12.2372 16.9402V24.0002C12.2372 26.0743 13.9246 27.7617 15.9987 27.7617H32.0012C34.0753 27.7617 35.7627 26.0743 35.7627 24.0002V16.9402C35.7627 14.8661 34.0753 13.1787 32.0013 13.1787ZM33.8877 24.0002C33.8877 25.0404 33.0414 25.8867 32.0012 25.8867H15.9987C14.9585 25.8867 14.1122 25.0404 14.1122 24.0002V16.9402C14.1122 15.9 14.9585 15.0537 15.9987 15.0537H32.0012C33.0414 15.0537 33.8877 15.9 33.8877 16.9402V24.0002Z" fill="#052A75"/>
<path d="M14.1161 36.2334H13.1748C12.657 36.2334 12.2373 35.8137 12.2373 35.2959C12.2373 34.7781 12.657 34.3584 13.1748 34.3584H14.1161C14.6339 34.3584 15.0536 34.7781 15.0536 35.2959C15.0536 35.8137 14.6339 36.2334 14.1161 36.2334Z" fill="#4697F2"/>
<path d="M19.2934 36.2334H18.352C17.8342 36.2334 17.4145 35.8137 17.4145 35.2959C17.4145 34.7781 17.8342 34.3584 18.352 34.3584H19.2934C19.8111 34.3584 20.2309 34.7781 20.2309 35.2959C20.2309 35.8137 19.8111 36.2334 19.2934 36.2334Z" fill="#4697F2"/>
<path d="M29.6479 36.2334H28.7066C28.1888 36.2334 27.7691 35.8137 27.7691 35.2959C27.7691 34.7781 28.1888 34.3584 28.7066 34.3584H29.6479C30.1657 34.3584 30.5854 34.7781 30.5854 35.2959C30.5854 35.8137 30.1657 36.2334 29.6479 36.2334Z" fill="#4697F2"/>
<path d="M34.8252 36.2334H33.8839C33.3661 36.2334 32.9464 35.8137 32.9464 35.2959C32.9464 34.7781 33.3661 34.3584 33.8839 34.3584H34.8252C35.343 34.3584 35.7627 34.7781 35.7627 35.2959C35.7627 35.8137 35.343 36.2334 34.8252 36.2334Z" fill="#4697F2"/>
</g>
<defs>
<clipPath id="clip0_1_406">
<rect width="48" height="48" fill="white"/>
</clipPath>
</defs>
</svg>
