<svg width="48" height="48" viewBox="0 0 48 48" fill="none" xmlns="http://www.w3.org/2000/svg">
<g clip-path="url(#clip0_1_438)">
<path d="M6.79594 0.9375H29.8738C33.1042 0.9375 35.7323 3.56559 35.7323 6.79603V15.6997C35.7323 18.93 33.1042 21.5581 29.8738 21.5581H12.3878L8.96644 24.8376C8.15081 25.6193 6.79594 25.0413 6.79594 23.9115V21.5581C3.56559 21.5581 0.9375 18.93 0.9375 15.6997V6.79603C0.9375 3.56559 3.56559 0.9375 6.79594 0.9375Z" fill="#67CCD1"/>
<path d="M8.51755 10.9059V19.8095C8.51755 21.4035 8.90811 22.9077 9.59792 24.2323L12.3877 21.5581H29.8738C33.1042 21.5581 35.7323 18.93 35.7323 15.6996V6.79599C35.7323 4.27589 34.1328 2.12255 31.8957 1.29736H18.1261C12.828 1.29736 8.51755 5.60771 8.51755 10.9059Z" fill="#4697F2"/>
<path d="M41.2041 5.04736H18.1261C14.8958 5.04736 12.2676 7.67546 12.2676 10.9059V19.8095C12.2676 23.0399 14.8957 25.668 18.1261 25.668H35.6122L39.0335 28.9474C39.8491 29.7292 41.204 29.1511 41.204 28.0214V25.668C44.4343 25.668 47.0624 23.0399 47.0624 19.8095V10.9059C47.0625 7.67546 44.4344 5.04736 41.2041 5.04736Z" fill="#F7CB4E"/>
<path d="M14.9964 40.118C12.8235 40.118 11.062 38.3565 11.062 36.1837V34.5002C11.062 32.3274 12.8235 30.5659 14.9964 30.5659C17.1692 30.5659 18.9307 32.3274 18.9307 34.5002V36.1837C18.9307 38.3565 17.1692 40.118 14.9964 40.118Z" fill="#FDE0BE"/>
<path d="M8.05191 47.0626C8.05191 43.2273 11.161 40.1182 14.9963 40.1182C18.8317 40.1182 21.9408 43.2273 21.9408 47.0626H8.05191Z" fill="#FD7DA0"/>
<path d="M33.0037 40.118C30.8308 40.118 29.0694 38.3565 29.0694 36.1837V34.5002C29.0694 32.3274 30.8308 30.5659 33.0037 30.5659C35.1765 30.5659 36.938 32.3274 36.938 34.5002V36.1837C36.938 38.3565 35.1765 40.118 33.0037 40.118Z" fill="#D46B5C"/>
<path d="M26.0592 47.0626C26.0592 43.2273 29.1684 40.1182 33.0037 40.1182C36.839 40.1182 39.9481 43.2273 39.9481 47.0626H26.0592Z" fill="#B1D952"/>
<path d="M41.2041 21.4319H18.1261C17.23 21.4319 16.5036 20.7054 16.5036 19.8094V10.9057C16.5036 10.0097 17.23 9.2832 18.1261 9.2832H41.2041C42.1001 9.2832 42.8266 10.0097 42.8266 10.9057V19.8094C42.8266 20.7054 42.1001 21.4319 41.2041 21.4319Z" fill="#BC9AF4"/>
<path d="M25.0346 14.42H23.4252V12.8105C23.4252 12.2928 23.0055 11.873 22.4877 11.873C21.97 11.873 21.5502 12.2928 21.5502 12.8105V14.42H19.9408C19.423 14.42 19.0033 14.8397 19.0033 15.3575C19.0033 15.8752 19.423 16.295 19.9408 16.295H21.5502V17.9044C21.5502 18.4221 21.97 18.8419 22.4877 18.8419C23.0055 18.8419 23.4252 18.4221 23.4252 17.9044V16.295H25.0346C25.5523 16.295 25.9721 15.8752 25.9721 15.3575C25.9721 14.8397 25.5524 14.42 25.0346 14.42Z" fill="white"/>
<path d="M34.2955 16.2954C34.8133 16.2954 35.233 15.8757 35.233 15.3579C35.233 14.8401 34.8133 14.4204 34.2955 14.4204C33.7778 14.4204 33.358 14.8401 33.358 15.3579C33.358 15.8757 33.7778 16.2954 34.2955 16.2954Z" fill="white"/>
<path d="M39.389 16.2954C39.9067 16.2954 40.3265 15.8757 40.3265 15.3579C40.3265 14.8401 39.9067 14.4204 39.389 14.4204C38.8712 14.4204 38.4515 14.8401 38.4515 15.3579C38.4515 15.8757 38.8712 16.2954 39.389 16.2954Z" fill="white"/>
<path d="M36.8423 13.748C37.3601 13.748 37.7798 13.3283 37.7798 12.8105C37.7798 12.2928 37.3601 11.873 36.8423 11.873C36.3246 11.873 35.9048 12.2928 35.9048 12.8105C35.9048 13.3283 36.3246 13.748 36.8423 13.748Z" fill="white"/>
<path d="M36.8423 18.8423C37.3601 18.8423 37.7798 18.4226 37.7798 17.9048C37.7798 17.387 37.3601 16.9673 36.8423 16.9673C36.3246 16.9673 35.9048 17.387 35.9048 17.9048C35.9048 18.4226 36.3246 18.8423 36.8423 18.8423Z" fill="white"/>
<path d="M41.2041 4.10991H36.1166C35.0498 1.63041 32.6065 0 29.8738 0H6.79594C3.04866 0 0 3.04866 0 6.79603V15.6997C0 19.129 2.553 21.9732 5.85844 22.4312V23.9116C5.85844 24.8162 6.37537 25.5988 7.20741 25.9538C7.49597 26.0768 7.79531 26.137 8.09053 26.137C8.64684 26.137 9.18853 25.9234 9.61519 25.5144L12.1653 23.0701C13.3214 25.1752 15.5596 26.6055 18.1261 26.6055H35.2355L38.3848 29.6243C38.8115 30.0333 39.3531 30.2469 39.9095 30.2469C40.2046 30.2469 40.504 30.1867 40.7925 30.0637C41.6246 29.7086 42.1416 28.9262 42.1416 28.0215V26.5411C45.447 26.0831 48 23.2389 48 19.8096V10.9059C48 7.15856 44.9513 4.10991 41.2041 4.10991ZM8.31769 24.1608C8.17444 24.298 8.02153 24.2625 7.94325 24.2291C7.86487 24.1957 7.73344 24.11 7.73344 23.9115V21.558C7.73344 21.0402 7.31372 20.6205 6.79594 20.6205C4.08253 20.6205 1.875 18.413 1.875 15.6996V6.79603C1.875 4.08253 4.08253 1.875 6.79594 1.875H29.8738C31.565 1.875 33.1025 2.73806 33.9964 4.10991H18.1261C14.3787 4.10991 11.3301 7.15856 11.3301 10.9059V19.8096C11.3301 20.267 11.3762 20.7138 11.4627 21.1461L8.31769 24.1608ZM46.125 19.8096C46.125 22.523 43.9175 24.7305 41.2041 24.7305C40.6864 24.7305 40.2666 25.1502 40.2666 25.668V28.0215C40.2666 28.22 40.1351 28.3057 40.0568 28.3391C39.9786 28.3725 39.8257 28.4082 39.6824 28.2708L36.2611 24.9913C36.0866 24.824 35.8541 24.7306 35.6123 24.7306H18.1261C15.4127 24.7306 13.2051 22.5231 13.2051 19.8097V10.9059C13.2051 8.19253 15.4126 5.98491 18.1261 5.98491H41.2041C43.9175 5.98491 46.125 8.19244 46.125 10.9059V19.8096Z" fill="#052A75"/>
<path d="M18.1892 39.8587C19.2167 38.9648 19.8682 37.6493 19.8682 36.1837V34.5002C19.8682 31.8139 17.6827 29.6284 14.9963 29.6284C12.31 29.6284 10.1245 31.8139 10.1245 34.5002V36.1837C10.1245 37.6493 10.776 38.9649 11.8035 39.8587C9.04416 41.0865 7.11441 43.8525 7.11441 47.0625C7.11441 47.5802 7.53413 48 8.05191 48H21.9408C22.4586 48 22.8783 47.5802 22.8783 47.0625C22.8783 43.8525 20.9485 41.0865 18.1892 39.8587ZM11.9996 36.1837V34.5002C11.9996 32.8478 13.344 31.5034 14.9964 31.5034C16.6489 31.5034 17.9933 32.8478 17.9933 34.5002V36.1837C17.9933 37.8361 16.6489 39.1805 14.9964 39.1805C13.344 39.1805 11.9996 37.8361 11.9996 36.1837ZM9.06254 46.125C9.51394 43.2563 12.003 41.0555 14.9964 41.0555C17.9899 41.0555 20.4788 43.2564 20.9303 46.125H9.06254Z" fill="#052A75"/>
<path d="M36.1965 39.8587C37.224 38.9648 37.8755 37.6493 37.8755 36.1837V34.5002C37.8755 31.8139 35.69 29.6284 33.0036 29.6284C30.3173 29.6284 28.1318 31.8139 28.1318 34.5002V36.1837C28.1318 37.6494 28.7833 38.9649 29.8108 39.8587C27.0515 41.0865 25.1217 43.8525 25.1217 47.0625C25.1217 47.5802 25.5415 48 26.0592 48H39.9481C40.4658 48 40.8856 47.5802 40.8856 47.0625C40.8856 43.8525 38.9558 41.0865 36.1965 39.8587ZM30.0068 36.1837V34.5002C30.0068 32.8478 31.3512 31.5034 33.0036 31.5034C34.6561 31.5034 36.0005 32.8478 36.0005 34.5002V36.1837C36.0005 37.8361 34.6561 39.1805 33.0036 39.1805C31.3512 39.1805 30.0068 37.8361 30.0068 36.1837ZM27.0697 46.125C27.5211 43.2563 30.0102 41.0555 33.0036 41.0555C35.9971 41.0555 38.486 43.2564 38.9375 46.125H27.0697Z" fill="#052A75"/>
<path d="M41.2041 8.3457H18.1261C16.7145 8.3457 15.5661 9.49414 15.5661 10.9057V19.8094C15.5661 21.221 16.7145 22.3694 18.1261 22.3694H41.2041C42.6157 22.3694 43.7641 21.221 43.7641 19.8094V10.9058C43.764 9.49414 42.6156 8.3457 41.2041 8.3457ZM41.889 19.8095C41.889 20.1872 41.5818 20.4945 41.204 20.4945H18.1261C17.7484 20.4945 17.4411 20.1872 17.4411 19.8095V10.9058C17.4411 10.5281 17.7484 10.2208 18.1261 10.2208H41.2041C41.5818 10.2208 41.8891 10.5281 41.8891 10.9058L41.889 19.8095Z" fill="#052A75"/>
</g>
<defs>
<clipPath id="clip0_1_438">
<rect width="48" height="48" fill="white"/>
</clipPath>
</defs>
</svg>
