<svg width="48" height="48" viewBox="0 0 48 48" fill="none" xmlns="http://www.w3.org/2000/svg">
<g clip-path="url(#clip0_1_473)">
<path fill-rule="evenodd" clip-rule="evenodd" d="M20.4972 42.2128C15.2424 47.4716 9.38267 48.1443 5.45935 45.7154C0.664754 42.7469 -1.23803 36.0873 4.38942 26.5632L6.99474 22.1539C8.27111 19.9937 9.69775 18.52 12.2054 18.52H35.7947C38.3023 18.52 39.7289 19.9937 41.0053 22.1539L43.6107 26.5632C49.2381 36.0872 47.3353 42.747 42.5406 45.7154C38.6173 48.1444 32.7576 47.4716 27.5028 42.2128H20.4972Z" fill="#BC9AF4"/>
<path fill-rule="evenodd" clip-rule="evenodd" d="M20.4972 42.2128C15.2424 47.4716 9.38267 48.1443 5.45935 45.7154C0.664754 42.7469 -1.23803 36.0873 4.38942 26.5632L6.99474 22.1539C8.27111 19.9937 9.69775 18.52 12.2054 18.52H21.2215C19.7782 21.5328 18.9692 24.9075 18.9692 28.4713C18.9692 33.6203 20.6573 38.3749 23.5095 42.2128H20.4972Z" fill="#4697F2"/>
<path fill-rule="evenodd" clip-rule="evenodd" d="M6.99466 22.1543L5.69205 24.359H14.2464C15.2818 24.359 16.1289 23.5118 16.1289 22.4764V18.5205H12.2052C9.69767 18.5204 8.27112 19.9941 6.99466 22.1543Z" fill="#FD8F01"/>
<path fill-rule="evenodd" clip-rule="evenodd" d="M21.1761 16.1633V18.5202H26.8238V16.1633C26.8238 15.128 25.9767 14.2808 24.9413 14.2808H23.0587C22.0232 14.2807 21.1761 15.1279 21.1761 16.1633Z" fill="#F7CB4E"/>
<path fill-rule="evenodd" clip-rule="evenodd" d="M31.8709 18.5201V22.4761C31.8709 23.5115 32.7181 24.3586 33.7535 24.3586H42.3079L41.0053 22.1539C39.7289 19.9937 38.3022 18.52 35.7946 18.52L31.8709 18.5201Z" fill="#F7CB4E"/>
<path fill-rule="evenodd" clip-rule="evenodd" d="M12.6697 29.2939C13.8476 29.2939 14.8112 30.2576 14.8112 31.4354V32.4944H15.8701C17.048 32.4944 18.0116 33.458 18.0116 34.6358C18.0116 35.8137 17.048 36.7773 15.8701 36.7773H14.8112V37.8363C14.8112 39.0141 13.8476 39.9777 12.6697 39.9777C11.4919 39.9777 10.5283 39.0141 10.5283 37.8363V36.7773H9.46928C8.29145 36.7773 7.32782 35.8137 7.32782 34.6358C7.32782 33.458 8.29145 32.4944 9.46928 32.4944H10.5283V31.4354C10.5283 30.2576 11.492 29.2939 12.6697 29.2939Z" fill="#D2DCFD"/>
<path fill-rule="evenodd" clip-rule="evenodd" d="M31.0863 39.1152C30.2499 38.2789 30.2499 36.923 31.0863 36.0867C31.9226 35.2504 33.2784 35.2504 34.1148 36.0867C34.9511 36.923 34.9511 38.2789 34.1148 39.1152C33.2783 39.9514 31.9226 39.9514 31.0863 39.1152Z" fill="white"/>
<path d="M38.5306 33.8122C39.7133 33.8122 40.6721 32.8535 40.6721 31.6708C40.6721 30.4881 39.7133 29.5293 38.5306 29.5293C37.3479 29.5293 36.3892 30.4881 36.3892 31.6708C36.3892 32.8535 37.3479 33.8122 38.5306 33.8122Z" fill="white"/>
<path d="M24 14.75C23.4823 14.75 23.0625 14.3303 23.0625 13.8125V12.6359C23.0625 11.985 22.5331 11.4555 21.8822 11.4555H19.6415C17.9568 11.4555 16.5861 10.0848 16.5861 8.40021C16.5861 6.71548 17.9568 5.34481 19.6415 5.34481H25.412C26.0628 5.34481 26.5924 4.81532 26.5924 4.16444V0.939912C26.5924 0.422147 27.0122 0.00244141 27.5299 0.00244141C28.0475 0.00244141 28.4673 0.422147 28.4673 0.939912V4.16444C28.4673 5.84916 27.0968 7.21975 25.412 7.21975H19.6415C18.9906 7.21975 18.4611 7.74923 18.4611 8.40021C18.4611 9.0511 18.9905 9.58058 19.6415 9.58058H21.8822C23.5669 9.58058 24.9375 10.9513 24.9375 12.6359V13.8125C24.9375 14.3303 24.5177 14.75 24 14.75Z" fill="#4697F2"/>
<path d="M44.4176 26.0866L41.8124 21.6773C40.616 19.6526 38.9656 17.5828 35.7947 17.5828H27.7615V16.1634C27.7615 14.6084 26.4964 13.3433 24.9414 13.3433H23.0588C21.5038 13.3433 20.2388 14.6084 20.2388 16.1634V17.5828H12.2055C9.03459 17.5828 7.38408 19.6526 6.18778 21.6773L3.58245 26.0866C-2.65961 36.6507 0.204368 43.5647 4.96597 46.5127C7.16424 47.8737 9.89772 48.319 12.6627 47.7665C15.5091 47.1979 18.3436 45.6045 20.8811 43.1505H27.119C29.6565 45.6046 32.4909 47.1979 35.3373 47.7666C36.1118 47.9213 36.8836 47.9978 37.642 47.9978C39.5915 47.9978 41.4516 47.4925 43.0341 46.5128C47.7957 43.5647 50.6597 36.6506 44.4176 26.0866ZM22.1136 16.1634C22.1136 15.6422 22.5375 15.2182 23.0587 15.2182H24.9413C25.4625 15.2182 25.8865 15.6421 25.8865 16.1634V17.5828H22.1136V16.1634ZM42.0472 44.9185C38.1003 47.362 32.6518 46.0398 28.1659 41.5504C27.9901 41.3744 27.7515 41.2755 27.5028 41.2755H20.4973C20.2486 41.2755 20.01 41.3744 19.8343 41.5504C15.3481 46.0397 9.8995 47.3617 5.95294 44.9185C3.65295 43.4945 2.26783 41.2717 1.9475 38.4905C1.57223 35.2323 2.6957 31.2728 5.19649 27.0403L7.80182 22.631C9.15121 20.3474 10.3858 19.4576 12.2054 19.4576H35.7947C37.6142 19.4576 38.8489 20.3474 40.1983 22.631L42.8035 27.0403C45.3044 31.2728 46.4279 35.2322 46.0526 38.4905C45.7322 41.2718 44.3471 43.4946 42.0472 44.9185Z" fill="#052A75"/>
<path d="M25.5531 25.2958H22.4468C21.9291 25.2958 21.5093 24.8761 21.5093 24.3584C21.5093 23.8406 21.9291 23.4209 22.4468 23.4209H25.5531C26.0708 23.4209 26.4906 23.8406 26.4906 24.3584C26.4906 24.8761 26.0709 25.2958 25.5531 25.2958Z" fill="white"/>
<path d="M25.5531 29.5786H22.4468C21.9291 29.5786 21.5093 29.1588 21.5093 28.6411C21.5093 28.1233 21.9291 27.7036 22.4468 27.7036H25.5531C26.0708 27.7036 26.4906 28.1233 26.4906 28.6411C26.4906 29.1588 26.0709 29.5786 25.5531 29.5786Z" fill="white"/>
</g>
<defs>
<clipPath id="clip0_1_473">
<rect width="48" height="48" fill="white"/>
</clipPath>
</defs>
</svg>
