<svg width="60" height="60" viewBox="0 0 60 60" fill="none" xmlns="http://www.w3.org/2000/svg">
<g clip-path="url(#clip0_1_505)">
<path d="M14.6295 42.143L13.2622 48.1588L23.0476 47.3027L20.6564 41.6157L14.6295 42.143Z" fill="#DB4B86"/>
<path d="M17.6547 42.1215C25.9378 41.398 32.0184 33.5517 31.2361 24.5964C30.4539 15.6411 23.105 8.9679 14.822 9.69142C6.53895 10.4149 0.458351 18.2612 1.24059 27.2165C2.02283 36.1718 9.3717 42.845 17.6547 42.1215Z" fill="#FD7DA0"/>
<path d="M14.8267 9.69059C12.9806 9.85211 11.2442 10.3682 9.66856 11.1707C9.11353 13.1891 8.8252 15.3013 8.8252 17.4583C8.8252 22.5738 10.4972 27.5764 13.5332 31.5447C15.1888 33.7088 17.2061 35.5159 19.4599 36.8853L19.2647 37.4929C18.801 38.9367 18.8966 40.4841 19.4996 41.8432C26.8273 40.2109 31.9707 32.8777 31.2463 24.5964C30.4626 15.6393 23.1114 8.96581 14.8267 9.69059Z" fill="#DB4B86"/>
<path d="M45.3714 42.143L46.7387 48.1588L36.9532 47.3027L39.3445 41.6157L45.3714 42.143Z" fill="#FD8F01"/>
<path d="M58.741 27.2234C59.5232 18.2681 53.4427 10.4218 45.1596 9.69831C36.8766 8.9748 29.5277 15.648 28.7455 24.6033C27.9632 33.5586 34.0438 41.4049 42.3269 42.1284C50.6099 42.8519 57.9588 36.1787 58.741 27.2234Z" fill="#F7CB4E"/>
<path d="M28.7545 24.5965C28.03 32.8778 33.1734 40.211 40.5013 41.8433C41.1042 40.4842 41.1998 38.9367 40.7361 37.4929L40.541 36.8853C42.7949 35.5157 44.8122 33.7087 46.4678 31.5447C49.5038 27.5764 51.1759 22.5737 51.1759 17.4583C51.1759 15.3013 50.8874 13.1891 50.3325 11.1707C48.7568 10.3683 47.0205 9.85209 45.1743 9.69057C36.8894 8.96591 29.5381 15.6394 28.7545 24.5965Z" fill="#FD8F01"/>
<path d="M26.9755 33.4897L25.089 39.3635H34.9117L33.0253 33.4897H26.9755Z" fill="#91B706"/>
<path d="M30.0004 33.7385C38.3167 33.7385 45.0584 26.4497 45.0584 17.4584C45.0584 8.4671 38.3167 1.17822 30.0004 1.17822C21.6841 1.17822 14.9424 8.4671 14.9424 17.4584C14.9424 26.4497 21.6841 33.7385 30.0004 33.7385Z" fill="#B1D952"/>
<path d="M36.2454 28.4922C27.9291 28.4922 21.1875 21.2033 21.1875 12.2121C21.1875 8.53874 22.3132 5.14987 24.2113 2.42578C18.7685 4.87871 14.9424 10.6851 14.9424 17.4584C14.9424 26.4496 21.6841 33.7385 30.0004 33.7385C34.9191 33.7385 39.2866 31.1884 42.0345 27.2447C40.2523 28.048 38.297 28.4922 36.2454 28.4922Z" fill="#91B706"/>
<path d="M35.1192 19.0403L32.3532 17.4434L35.1192 15.8466C35.6819 15.5218 35.8747 14.8023 35.5497 14.2396C35.2249 13.677 34.5054 13.4841 33.9428 13.809L31.1768 15.4059V12.2121C31.1768 11.5623 30.65 11.0356 30.0004 11.0356C29.3507 11.0356 28.824 11.5623 28.824 12.2121V15.4059L26.058 13.809C25.4954 13.4843 24.776 13.6769 24.4511 14.2396C24.1261 14.8023 24.3189 15.5218 24.8816 15.8466L27.6476 17.4434L24.8816 19.0403C24.3189 19.3651 24.1261 20.0846 24.4511 20.6472C24.6689 21.0246 25.0643 21.2356 25.4709 21.2356C25.6704 21.2356 25.8727 21.1847 26.058 21.0778L28.824 19.4809V22.6748C28.824 23.3245 29.3507 23.8512 30.0004 23.8512C30.65 23.8512 31.1768 23.3245 31.1768 22.6748V19.4809L33.9428 21.0778C34.1281 21.1847 34.3303 21.2356 34.5298 21.2356C34.9364 21.2356 35.3319 21.0246 35.5497 20.6472C35.8747 20.0846 35.6819 19.3652 35.1192 19.0403Z" fill="white"/>
<path d="M45.2766 8.51841C44.8224 8.47865 44.3638 8.45982 43.9075 8.46076C41.0627 3.39551 35.8935 0.00146484 30.0004 0.00146484C24.1071 0.00146484 18.9376 3.39598 16.0928 8.46182C15.6363 8.46088 15.1783 8.47876 14.7242 8.51853C10.3869 8.89804 6.47367 11.0749 3.70524 14.6481C0.957975 18.194 -0.331954 22.6955 0.0729649 27.3235C0.477766 31.9515 2.52989 36.1607 5.85112 39.1757C8.01041 41.1358 10.5376 42.4407 13.224 43.0182L12.1149 47.8979C12.0316 48.2645 12.1284 48.6487 12.3755 48.932C12.5999 49.1894 12.9238 49.3351 13.2619 49.3351C13.296 49.3351 13.3302 49.3336 13.3646 49.3306L17.5214 48.967C18.1181 50.1482 18.149 51.5553 17.5749 52.7721C16.5479 54.9484 16.773 57.5212 18.1623 59.4862C18.3916 59.8104 18.7549 59.9836 19.1239 59.9836C19.3586 59.9836 19.5958 59.9135 19.802 59.7677C20.3326 59.3927 20.4585 58.6585 20.0835 58.128C19.183 56.8543 19.0371 55.1869 19.7027 53.7762C20.4548 52.1825 20.5347 50.3766 19.9785 48.7521L23.15 48.4746C23.5245 48.4419 23.8607 48.2321 24.0548 47.9102C24.2489 47.5884 24.2776 47.1931 24.1319 46.8467L22.189 42.2261C23.2685 41.7859 24.3014 41.2215 25.2691 40.5399H29.275C29.922 42.0568 29.8256 43.8152 28.9844 45.2569C27.6039 47.623 27.6039 50.5627 28.9844 52.9288C29.9383 54.5635 29.9383 56.5945 28.9844 58.2292C28.657 58.7903 28.8464 59.5108 29.4077 59.8382C29.5942 59.947 29.798 59.9986 29.9994 59.9986C30.4041 59.9986 30.798 59.7897 31.0167 59.4149C32.3972 57.0488 32.3972 54.1091 31.0167 51.743C30.0628 50.1082 30.0628 48.0773 31.0167 46.4426C32.0664 44.6435 32.3162 42.503 31.7653 40.5399H34.7316C35.6994 41.2215 36.7324 41.7859 37.8118 42.2261L35.869 46.8468C35.7234 47.1932 35.7521 47.5885 35.9462 47.9104C36.1402 48.2322 36.4765 48.442 36.8509 48.4747L40.0224 48.7522C39.4662 50.3767 39.5461 52.1826 40.298 53.7763C40.9638 55.187 40.8179 56.8545 39.9175 58.128C39.5424 58.6586 39.6684 59.3927 40.1989 59.7677C40.4052 59.9136 40.6423 59.9837 40.8771 59.9837C41.2461 59.9837 41.6095 59.8105 41.8387 59.4863C43.228 57.5214 43.4532 54.9486 42.426 52.7721C41.852 51.5555 41.883 50.1484 42.4797 48.9671L46.6364 49.3308C46.6706 49.3337 46.7049 49.3352 46.739 49.3352C47.0771 49.3352 47.401 49.1893 47.6254 48.9321C47.8725 48.6488 47.9693 48.2646 47.886 47.898L46.7751 43.0105C53.7025 41.5055 59.2354 35.2409 59.928 27.3236C60.7668 17.7345 54.1942 9.2986 45.2766 8.51841ZM30.0004 2.35428C37.6547 2.35428 43.882 9.12979 43.882 17.458C43.882 25.7863 37.6547 32.5618 30.0004 32.5618C22.3461 32.5618 16.1188 25.7863 16.1188 17.458C16.1188 9.12979 22.3461 2.35428 30.0004 2.35428ZM2.41684 27.1184C2.06368 23.0823 3.18174 19.1654 5.56513 16.0891C7.92724 13.0402 11.2528 11.1839 14.9293 10.8623C14.9434 10.8611 14.9576 10.8604 14.9717 10.8592C14.1954 12.896 13.7661 15.1239 13.7661 17.4579C13.7661 25.4057 18.7315 32.1292 25.5014 34.2321L24.1474 38.4482C22.2028 39.8812 19.9333 40.7473 17.562 40.9547C13.8856 41.2766 10.2883 40.0259 7.43256 37.4334C4.55119 34.8178 2.76999 31.1546 2.41684 27.1184ZM21.3377 46.271L14.7669 46.8459L15.5654 43.3325C15.85 43.3485 16.1356 43.3574 16.4221 43.3574C16.8684 43.3574 17.3175 43.3379 17.767 43.2986C18.5015 43.2344 19.2276 43.1167 19.9405 42.948L21.3377 46.271ZM26.7024 38.1869L27.8049 34.7544C28.5232 34.8593 29.2558 34.9146 30.0005 34.9146C30.745 34.9146 31.4777 34.8593 32.196 34.7544L33.2986 38.1869H26.7024ZM45.2339 46.8459L38.6632 46.271L40.0604 42.948C40.7733 43.1167 41.4993 43.2344 42.2336 43.2986C42.6794 43.3377 43.122 43.3567 43.5621 43.3567C43.8546 43.3567 44.1455 43.3473 44.4349 43.3306L45.2339 46.8459ZM57.584 27.1184C56.8582 35.415 50.0648 41.6218 42.4388 40.9549C40.0679 40.7475 37.7983 39.8813 35.8536 38.4484L34.4994 34.2322C41.2695 32.1295 46.2348 25.4058 46.2348 17.458C46.2348 15.124 45.8055 12.8962 45.0292 10.8593C45.0433 10.8605 45.0576 10.8611 45.0717 10.8624C52.6968 11.5294 58.3099 18.8218 57.584 27.1184Z" fill="#052A75"/>
<path d="M12.7322 31.7064C12.1071 31.4531 11.8044 30.7383 12.0577 30.1132C12.798 28.2855 11.9133 26.1963 10.0857 25.456C9.48333 25.212 8.79749 25.5026 8.55362 26.1047C8.30975 26.7068 8.6002 27.3927 9.20229 27.6367C9.82743 27.89 10.1301 28.6048 9.87684 29.2299C9.13653 31.0576 10.0212 33.1468 11.8488 33.8871C11.9935 33.9457 12.1431 33.9734 12.2901 33.9734C12.7552 33.9734 13.1956 33.6959 13.3809 33.2384C13.6248 32.6362 13.3344 31.9504 12.7322 31.7064Z" fill="#F7CB4E"/>
<path d="M57.1592 6.961C56.6405 7.35227 56.5372 8.09 56.9285 8.60868C57.1599 8.91513 57.5121 9.07665 57.8685 9.07665C58.1152 9.07665 58.364 8.99936 58.5761 8.83925C60.1503 7.65167 60.4647 5.40473 59.277 3.83047C58.8708 3.29203 58.9784 2.52336 59.5169 2.11703C60.0355 1.72576 60.1386 0.988036 59.7474 0.469476C59.356 -0.0492012 58.6185 -0.152607 58.0997 0.239018C56.5257 1.42672 56.2112 3.67354 57.3988 5.24757C57.8052 5.78613 57.6977 6.55467 57.1592 6.961Z" fill="#4697F2"/>
<path d="M48.1795 29.3055C47.72 28.8461 46.9751 28.8461 46.5157 29.3055C46.0563 29.7649 46.0563 30.5098 46.5157 30.9692L47.7082 32.1616C47.938 32.3913 48.239 32.5061 48.54 32.5061C48.8411 32.5061 49.1422 32.3912 49.3719 32.1616C49.8313 31.7022 49.8313 30.9573 49.3719 30.4979L48.1795 29.3055Z" fill="#4697F2"/>
<path d="M5.15159 4.32106C5.45263 4.32106 5.75379 4.20612 5.98343 3.97649L7.18654 2.77338C7.64593 2.31399 7.64593 1.56909 7.18654 1.10959C6.72715 0.650319 5.98225 0.650319 5.52275 1.10959L4.31964 2.3127C3.86025 2.77209 3.86025 3.51699 4.31964 3.97649C4.54939 4.20612 4.85055 4.32106 5.15159 4.32106Z" fill="#4697F2"/>
<path d="M54.9871 52.7991L53.9007 53.8855C53.4413 54.3449 53.4413 55.0898 53.9007 55.5492C54.1304 55.779 54.4315 55.8938 54.7325 55.8938C55.0336 55.8938 55.3346 55.7788 55.5644 55.5492L56.6508 54.4628C57.1102 54.0034 57.1102 53.2585 56.6508 52.7991C56.1915 52.3397 55.4468 52.3397 54.9871 52.7991Z" fill="#F7CB4E"/>
<path d="M5.07857 52.7991C4.61907 52.3397 3.87428 52.3397 3.4149 52.7991C2.95551 53.2585 2.95539 54.0034 3.4149 54.4628L5.00399 56.052C5.23374 56.2818 5.53478 56.3966 5.83582 56.3966C6.13686 56.3966 6.43802 56.2816 6.66766 56.052C7.12705 55.5926 7.12716 54.8477 6.66766 54.3883L5.07857 52.7991Z" fill="#4697F2"/>
</g>
<defs>
<clipPath id="clip0_1_505">
<rect width="60" height="60" fill="white"/>
</clipPath>
</defs>
</svg>
