<svg width="48" height="48" viewBox="0 0 48 48" fill="none" xmlns="http://www.w3.org/2000/svg">
<g clip-path="url(#clip0_356_1119)">
<path fill-rule="evenodd" clip-rule="evenodd" d="M20.4965 42.2123C15.2417 47.4712 9.38194 48.1438 5.45862 45.7149C0.664022 42.7464 -1.23876 36.0868 4.38869 26.5627L6.99401 22.1534C8.27038 19.9932 9.69702 18.5195 12.2047 18.5195H35.794C38.3016 18.5195 39.7281 19.9932 41.0046 22.1534L43.6099 26.5627C49.2374 36.0867 47.3346 42.7465 42.5399 45.7149C38.6166 48.1439 32.7568 47.4712 27.502 42.2123H20.4965Z" fill="#70B3FF"/>
<path fill-rule="evenodd" clip-rule="evenodd" d="M20.4965 42.2123C15.2417 47.4712 9.38194 48.1438 5.45862 45.7149C0.664022 42.7464 -1.23876 36.0868 4.38869 26.5627L6.99401 22.1534C8.27038 19.9932 9.69702 18.5195 12.2047 18.5195H21.2208C19.7775 21.5323 18.9685 24.907 18.9685 28.4708C18.9685 33.6198 20.6566 38.3744 23.5088 42.2123H20.4965Z" fill="#4697F2"/>
<path fill-rule="evenodd" clip-rule="evenodd" d="M6.99402 22.1534L5.69141 24.358H14.2457C15.2812 24.358 16.1283 23.5108 16.1283 22.4755V18.5195H12.2046C9.69703 18.5194 8.27048 19.9931 6.99402 22.1534Z" fill="#FD8F01"/>
<path fill-rule="evenodd" clip-rule="evenodd" d="M21.1758 16.1618V18.5187H26.8236V16.1618C26.8236 15.1265 25.9764 14.2793 24.941 14.2793H23.0584C22.023 14.2792 21.1758 15.1264 21.1758 16.1618Z" fill="#F7CB4E"/>
<path fill-rule="evenodd" clip-rule="evenodd" d="M31.8711 18.5196V22.4756C31.8711 23.511 32.7183 24.3581 33.7537 24.3581H42.308L41.0054 22.1534C39.7291 19.9932 38.3024 18.5195 35.7948 18.5195L31.8711 18.5196Z" fill="#F7CB4E"/>
<path fill-rule="evenodd" clip-rule="evenodd" d="M12.6681 29.293C13.8459 29.293 14.8095 30.2566 14.8095 31.4344V32.4934H15.8685C17.0463 32.4934 18.01 33.457 18.01 34.6349C18.01 35.8127 17.0463 36.7763 15.8685 36.7763H14.8095V37.8353C14.8095 39.0131 13.8459 39.9768 12.6681 39.9768C11.4902 39.9768 10.5266 39.0131 10.5266 37.8353V36.7763H9.46764C8.2898 36.7763 7.32617 35.8127 7.32617 34.6349C7.32617 33.457 8.2898 32.4934 9.46764 32.4934H10.5266V31.4344C10.5266 30.2566 11.4903 29.293 12.6681 29.293Z" fill="#D2DCFD"/>
<path fill-rule="evenodd" clip-rule="evenodd" d="M31.0862 39.1128C30.2499 38.2765 30.2499 36.9206 31.0862 36.0843C31.9225 35.248 33.2784 35.248 34.1147 36.0843C34.951 36.9206 34.951 38.2765 34.1147 39.1128C33.2783 39.949 31.9225 39.949 31.0862 39.1128Z" fill="white"/>
<path d="M38.5301 33.8103C39.7128 33.8103 40.6716 32.8515 40.6716 31.6688C40.6716 30.4861 39.7128 29.5273 38.5301 29.5273C37.3474 29.5273 36.3887 30.4861 36.3887 31.6688C36.3887 32.8515 37.3474 33.8103 38.5301 33.8103Z" fill="white"/>
<path d="M23.9998 14.7495C23.4822 14.7495 23.0624 14.3298 23.0624 13.812V12.6354C23.0624 11.9845 22.5329 11.455 21.882 11.455H19.6413C17.9566 11.455 16.5859 10.0844 16.5859 8.39972C16.5859 6.71499 17.9566 5.34432 19.6413 5.34432H25.4118C26.0626 5.34432 26.5922 4.81483 26.5922 4.16395V0.939424C26.5922 0.421659 27.012 0.00195312 27.5297 0.00195312C28.0474 0.00195312 28.4672 0.421659 28.4672 0.939424V4.16395C28.4672 5.84868 27.0966 7.21926 25.4118 7.21926H19.6413C18.9905 7.21926 18.4609 7.74874 18.4609 8.39972C18.4609 9.05061 18.9904 9.58009 19.6413 9.58009H21.882C23.5667 9.58009 24.9373 10.9508 24.9373 12.6354V13.812C24.9373 14.3298 24.5175 14.7495 23.9998 14.7495Z" fill="#4697F2"/>
<path d="M44.4176 26.0851L41.8124 21.6758C40.616 19.6512 38.9655 17.5813 35.7946 17.5813H27.7614V16.1619C27.7614 14.6069 26.4963 13.3418 24.9413 13.3418H23.0587C21.5037 13.3418 20.2387 14.6069 20.2387 16.1619V17.5813H12.2054C9.03453 17.5813 7.38402 19.6512 6.18771 21.6758L3.58239 26.0851C-2.65967 36.6492 0.204307 43.5632 4.96591 46.5112C7.16418 47.8722 9.89766 48.3175 12.6626 47.7651C15.5091 47.1964 18.3435 45.6031 20.8811 43.1491H27.1189C29.6565 45.6032 32.4908 47.1964 35.3372 47.7652C36.1118 47.9198 36.8835 47.9963 37.6419 47.9963C39.5914 47.9963 41.4515 47.491 43.0341 46.5113C47.7957 43.5632 50.6596 36.6491 44.4176 26.0851ZM22.1136 16.1619C22.1136 15.6408 22.5375 15.2167 23.0586 15.2167H24.9413C25.4625 15.2167 25.8864 15.6407 25.8864 16.1619V17.5813H22.1136V16.1619ZM42.0471 44.917C38.1003 47.3605 32.6518 46.0383 28.1659 41.5489C27.99 41.3729 27.7514 41.274 27.5027 41.274H20.4973C20.2486 41.274 20.01 41.3729 19.8342 41.5489C15.348 46.0382 9.89944 47.3603 5.95288 44.917C3.65289 43.493 2.26777 41.2703 1.94744 38.4891C1.57217 35.2308 2.69564 31.2713 5.19643 27.0388L7.80176 22.6295C9.15115 20.3459 10.3857 19.4562 12.2053 19.4562H35.7946C37.6142 19.4562 38.8488 20.3459 40.1982 22.6295L42.8034 27.0388C45.3043 31.2713 46.4278 35.2307 46.0525 38.4891C45.7321 41.2704 44.3471 43.4931 42.0471 44.917Z" fill="#E6E7E7"/>
<path d="M25.5535 25.2949H22.4472C21.9296 25.2949 21.5098 24.8752 21.5098 24.3574C21.5098 23.8396 21.9296 23.4199 22.4472 23.4199H25.5535C26.0712 23.4199 26.491 23.8396 26.491 24.3574C26.491 24.8752 26.0713 25.2949 25.5535 25.2949Z" fill="white"/>
<path d="M25.5535 29.5781H22.4472C21.9296 29.5781 21.5098 29.1584 21.5098 28.6406C21.5098 28.1228 21.9296 27.7031 22.4472 27.7031H25.5535C26.0712 27.7031 26.491 28.1228 26.491 28.6406C26.491 29.1584 26.0713 29.5781 25.5535 29.5781Z" fill="white"/>
</g>
<defs>
<clipPath id="clip0_356_1119">
<rect width="48" height="48" fill="white"/>
</clipPath>
</defs>
</svg>
