<svg width="48" height="48" viewBox="0 0 48 48" fill="none" xmlns="http://www.w3.org/2000/svg">
<g clip-path="url(#clip0_356_1055)">
<path d="M44.25 45.7644H3.75C2.19666 45.7644 0.9375 44.5052 0.9375 42.9519V5.04688C0.9375 3.49353 2.19666 2.23438 3.75 2.23438H44.25C45.8033 2.23438 47.0625 3.49353 47.0625 5.04688V42.9519C47.0625 44.5052 45.8033 45.7644 44.25 45.7644Z" fill="white"/>
<path d="M9.68297 17.9777C9.68297 12.3949 10.8105 7.07544 12.8497 2.23438H3.75C2.19666 2.23438 0.9375 3.49353 0.9375 5.04688V42.9519C0.9375 44.5052 2.19666 45.7644 3.75 45.7644H20.6874C13.8637 38.5028 9.68297 28.7287 9.68297 17.9777Z" fill="#D2DCFD"/>
<path d="M47.0625 5.04688C47.0625 3.49353 45.8033 2.23438 44.25 2.23438H3.75C2.19666 2.23438 0.9375 3.49353 0.9375 5.04688L10.3679 10.518H47.0625V5.04688Z" fill="#70B3FF"/>
<path d="M12.8497 2.23438H3.75C2.19666 2.23438 0.9375 3.49353 0.9375 5.04688V10.518H10.3679C10.9028 7.6385 11.7413 4.86566 12.8497 2.23438Z" fill="#4697F2"/>
<path d="M14.257 38.2718L16.5005 27.6055L5.8342 29.849L9.19823 31.4182L5.08008 35.5363L8.56964 39.0259L12.6878 34.9077L14.257 38.2718Z" fill="#F7CB4E"/>
<path d="M11.1255 28.7363L5.8342 29.8493L9.19814 31.4185L5.08008 35.5367L8.56973 39.0263L12.6879 34.9082L14.2571 38.2721L14.492 37.1553C13.0715 34.5109 11.9357 31.691 11.1255 28.7363Z" fill="#FD8F01"/>
<path d="M20.8867 25.0293H27.113V31.2556H20.8867V25.0293Z" fill="#93B2F4"/>
<path d="M20.8867 14.6602H27.113V20.8865H20.8867V14.6602Z" fill="#93B2F4"/>
<path d="M20.8867 35.3965H27.113V41.6228H20.8867V35.3965Z" fill="#93B2F4"/>
<path d="M42.9196 20.6582H31.502C30.9842 20.6582 30.5645 20.2385 30.5645 19.7207C30.5645 19.2029 30.9842 18.7832 31.502 18.7832H42.9196C43.4374 18.7832 43.8571 19.2029 43.8571 19.7207C43.8571 20.2385 43.4374 20.6582 42.9196 20.6582Z" fill="#4697F2"/>
<path d="M38.7218 17.2598H31.502C30.9842 17.2598 30.5645 16.84 30.5645 16.3223C30.5645 15.8045 30.9842 15.3848 31.502 15.3848H38.7218C39.2396 15.3848 39.6593 15.8045 39.6593 16.3223C39.6593 16.84 39.2396 17.2598 38.7218 17.2598Z" fill="#4697F2"/>
<path d="M42.9196 30.7773H31.502C30.9842 30.7773 30.5645 30.3576 30.5645 29.8398C30.5645 29.3221 30.9842 28.9023 31.502 28.9023H42.9196C43.4374 28.9023 43.8571 29.3221 43.8571 29.8398C43.8571 30.3576 43.4374 30.7773 42.9196 30.7773Z" fill="#4697F2"/>
<path d="M38.7218 27.3809H31.502C30.9842 27.3809 30.5645 26.9611 30.5645 26.4434C30.5645 25.9256 30.9842 25.5059 31.502 25.5059H38.7218C39.2396 25.5059 39.6593 25.9256 39.6593 26.4434C39.6593 26.9611 39.2396 27.3809 38.7218 27.3809Z" fill="#4697F2"/>
<path d="M42.9196 40.8984H31.502C30.9842 40.8984 30.5645 40.4787 30.5645 39.9609C30.5645 39.4432 30.9842 39.0234 31.502 39.0234H42.9196C43.4374 39.0234 43.8571 39.4432 43.8571 39.9609C43.8571 40.4787 43.4374 40.8984 42.9196 40.8984Z" fill="#4697F2"/>
<path d="M38.7218 37.5H31.502C30.9842 37.5 30.5645 37.0803 30.5645 36.5625C30.5645 36.0447 30.9842 35.625 31.502 35.625H38.7218C39.2396 35.625 39.6593 36.0447 39.6593 36.5625C39.6593 37.0803 39.2396 37.5 38.7218 37.5Z" fill="#4697F2"/>
<path d="M16.3076 26.688L5.64134 28.9315C5.24646 29.0146 4.94909 29.3409 4.90296 29.7418C4.85684 30.1426 5.07237 30.528 5.43799 30.6986L7.58871 31.7018L4.41715 34.8734C4.05105 35.2395 4.05105 35.8331 4.41715 36.1993L7.9068 39.689C8.0899 39.8721 8.3298 39.9636 8.56971 39.9636C8.80962 39.9636 9.04962 39.8721 9.23262 39.689L12.4042 36.5174L13.4074 38.6681C13.5779 39.0337 13.9634 39.2489 14.3642 39.2031C14.7651 39.157 15.0914 38.8596 15.1745 38.4648L17.418 27.7986C17.4833 27.4885 17.3875 27.1666 17.1636 26.9426C16.9395 26.7186 16.6175 26.6229 16.3076 26.688ZM13.9182 35.3277L13.5374 34.5113C13.4081 34.2341 13.1517 34.0375 12.8505 33.9844C12.5492 33.9311 12.2411 34.0284 12.0249 34.2447L8.56971 37.7L6.40587 35.5361L9.86112 32.081C10.0774 31.8647 10.1745 31.5565 10.1215 31.2553C10.0684 30.9541 9.87171 30.6977 9.59449 30.5684L8.77821 30.1876L15.2873 28.8185L13.9182 35.3277Z" fill="#14273F"/>
<path d="M44.25 1.29688H3.75C1.68225 1.29688 0 2.97913 0 5.04688V42.9519C0 45.0196 1.68225 46.7019 3.75 46.7019H44.25C46.3177 46.7019 48 45.0196 48 42.9519V5.04688C48 2.97913 46.3177 1.29688 44.25 1.29688ZM46.125 42.9519C46.125 43.9858 45.2839 44.8269 44.25 44.8269H3.75C2.71613 44.8269 1.875 43.9858 1.875 42.9519V5.04688C1.875 4.013 2.71613 3.17188 3.75 3.17188H44.25C45.2839 3.17188 46.125 4.013 46.125 5.04688V42.9519Z" fill="#E6E7E7"/>
<path d="M5.07864 7.78325C4.4326 7.80069 3.94642 7.07741 4.21332 6.48669C4.51585 5.72309 5.64151 5.72328 5.94395 6.48669C6.2101 7.07741 5.72495 7.80078 5.07864 7.78325Z" fill="white"/>
<path d="M9.22169 7.78248C8.57547 7.8001 8.08957 7.0772 8.35544 6.48591C8.65825 5.72401 9.78494 5.72288 10.087 6.48591C10.3531 7.07654 9.868 7.80019 9.22169 7.78248Z" fill="white"/>
<path d="M13.364 7.78265C12.7183 7.80046 12.2311 7.07606 12.4987 6.48609C12.8006 5.72334 13.9272 5.72343 14.2293 6.48609C14.4957 7.07681 14.0107 7.8 13.364 7.78265Z" fill="white"/>
<path d="M42.9215 7.7832H31.5039C30.9861 7.7832 30.5664 7.36348 30.5664 6.8457C30.5664 6.32792 30.9861 5.9082 31.5039 5.9082H42.9215C43.4393 5.9082 43.859 6.32792 43.859 6.8457C43.859 7.36348 43.4393 7.7832 42.9215 7.7832Z" fill="#F7CB4E"/>
</g>
<defs>
<clipPath id="clip0_356_1055">
<rect width="48" height="48" fill="white"/>
</clipPath>
</defs>
</svg>
