<svg width="48" height="48" viewBox="0 0 48 48" fill="none" xmlns="http://www.w3.org/2000/svg">
<g clip-path="url(#clip0_356_1088)">
<path fill-rule="evenodd" clip-rule="evenodd" d="M44.9131 14.4023C45.0623 14.6453 45.1944 14.903 45.3068 15.1743C45.9491 16.725 45.8222 18.4107 45.1045 19.802C46.2999 20.8127 47.0624 22.3215 47.0624 23.9999C47.0624 25.6784 46.2999 27.1872 45.1045 28.1978C45.8222 29.589 45.9491 31.2748 45.3068 32.8255C44.6645 34.3763 43.3827 35.4785 41.8915 35.9547C42.0221 37.5146 41.4943 39.1207 40.3075 40.3075C39.1207 41.4944 37.5146 42.0221 35.9547 41.8915C35.4784 43.3827 34.3763 44.6645 32.8255 45.3068C31.2748 45.9491 29.5891 45.8222 28.1978 45.1045C27.1871 46.3 25.6784 47.0625 23.9999 47.0625C22.3214 47.0625 20.8126 46.3 19.8019 45.1046C18.4106 45.8222 16.7249 45.9492 15.1743 45.3069C14.9029 45.1945 14.6453 45.0624 14.4023 44.9132L44.9131 14.4023Z" fill="#70B3FF"/>
<path fill-rule="evenodd" clip-rule="evenodd" d="M24 0.9375C25.6785 0.9375 27.1873 1.69997 28.1979 2.89528C29.5892 2.17762 31.2749 2.05069 32.8256 2.69297C33.097 2.80537 33.3547 2.93747 33.5977 3.08681L3.08681 33.5977C2.93747 33.3547 2.80537 33.097 2.69297 32.8256C2.05069 31.2749 2.17762 29.5892 2.89528 28.198C1.69997 27.1873 0.9375 25.6785 0.9375 24C0.9375 22.3215 1.69997 20.8128 2.89538 19.8021C2.17772 18.4108 2.05078 16.7251 2.69306 15.1744C3.33534 13.6237 4.61719 12.5214 6.10828 12.0452C5.97769 10.4853 6.50541 8.87925 7.69228 7.69238C8.87916 6.5055 10.4852 5.97778 12.0451 6.10837C12.5213 4.61728 13.6236 3.33544 15.1743 2.69306C16.725 2.05078 18.4107 2.17772 19.8019 2.89538C20.8127 1.69997 22.3215 0.9375 24 0.9375Z" fill="#70B3FF"/>
<path fill-rule="evenodd" clip-rule="evenodd" d="M34.8389 43.865C34.3027 44.4755 33.6234 44.9754 32.8255 45.306C31.2748 45.9483 29.5891 45.8213 28.1978 45.1037C27.1871 46.2991 25.6784 47.0615 23.9999 47.0615C22.3214 47.0615 20.8126 46.2991 19.8019 45.1037C18.4106 45.8212 16.7249 45.9483 15.1743 45.306C14.9029 45.1936 14.6453 45.0615 14.4023 44.9122L23.0079 36.3066C26.2428 39.7094 30.29 42.3325 34.8389 43.865Z" fill="#4697F2"/>
<path fill-rule="evenodd" clip-rule="evenodd" d="M15.4178 21.2671L3.08681 33.5981C2.93747 33.3551 2.80537 33.0975 2.69297 32.8261C2.05069 31.2754 2.17762 29.5896 2.89528 28.1985C1.69997 27.1878 0.9375 25.679 0.9375 24.0005C0.9375 22.322 1.69997 20.8132 2.89538 19.8025C2.17772 18.4113 2.05078 16.7256 2.69306 15.1748C3.33534 13.6241 4.61719 12.5219 6.10828 12.0456C5.97769 10.4857 6.50541 8.87971 7.69228 7.69283C8.87916 6.50596 10.4852 5.97824 12.0451 6.10883C12.5213 4.61774 13.6236 3.3359 15.1743 2.69352C16.247 2.24924 17.3842 2.17312 18.4438 2.4059C16.234 6.51505 14.9793 11.2139 14.9793 16.2064C14.9795 17.9325 15.1304 19.6232 15.4178 21.2671Z" fill="#4697F2"/>
<path fill-rule="evenodd" clip-rule="evenodd" d="M23.9999 7.88281C20.9171 7.88281 18.0368 8.74888 15.588 10.2503C12.663 13.5854 12.4658 19.8015 15.4178 21.2662L28.2381 8.44588C26.8876 8.07875 25.4667 7.88281 23.9999 7.88281Z" fill="#F7CB4E"/>
<path fill-rule="evenodd" clip-rule="evenodd" d="M39.5541 19.7617L23.0083 36.3075C22.5712 38.278 24.6235 39.6841 27.0302 39.8311C34.4827 38.4133 40.1171 31.8651 40.1171 24C40.117 22.5332 39.9212 21.1122 39.5541 19.7617Z" fill="#F7CB4E"/>
<path fill-rule="evenodd" clip-rule="evenodd" d="M15.588 10.25C10.9663 13.0834 7.88281 18.1812 7.88281 23.9995C7.88281 25.4662 8.07875 26.8872 8.44588 28.2376L15.4175 21.2661C15.1301 19.6223 14.979 17.9315 14.979 16.2053C14.979 14.1643 15.1893 12.1727 15.588 10.25Z" fill="#FD8F01"/>
<path fill-rule="evenodd" clip-rule="evenodd" d="M23.0078 36.3066L19.7617 39.5528C21.1122 39.92 22.5332 40.1159 23.9999 40.1159C25.0364 40.1159 26.0495 40.0168 27.0316 39.83C25.5846 38.7789 24.2371 37.5997 23.0078 36.3066Z" fill="#FD8F01"/>
<path d="M7.94777 37.3911C6.84809 36.2915 5.05905 36.2916 3.95946 37.3911C2.85987 38.4907 2.85987 40.2798 3.95946 41.3793L7.95312 45.3729C8.13621 45.556 8.37612 45.6475 8.61602 45.6475C8.85593 45.6475 9.09584 45.5559 9.27893 45.3729C9.64502 45.0068 9.64502 44.4132 9.27893 44.0471L7.94496 42.7132L9.28165 41.3766L10.6156 42.7105C10.9818 43.0766 11.5752 43.0766 11.9415 42.7105C12.3076 42.3444 12.3076 41.7508 11.9415 41.3846L7.94777 37.3911ZM6.61915 41.3873L5.28527 40.0535C4.91674 39.685 4.91674 39.0854 5.28527 38.7169C5.46949 38.5327 5.71155 38.4405 5.95352 38.4405C6.19559 38.4405 6.43765 38.5327 6.62187 38.7169L7.95574 40.0508L6.61915 41.3873Z" fill="#4697F2"/>
<path d="M39.2671 12.7342L37.6004 14.4009L36.2638 13.0643L37.2399 12.0882C37.606 11.7221 37.606 11.1285 37.2399 10.7624C36.8739 10.3963 36.2805 10.3963 35.914 10.7624L34.9379 11.7385L33.6013 10.4019L35.268 8.73515C35.6341 8.36905 35.6341 7.77543 35.268 7.40934C34.9018 7.04324 34.3083 7.04324 33.9421 7.40934L31.6125 9.73902C31.2464 10.1051 31.2464 10.6987 31.6125 11.0648L36.9373 16.3896C37.1204 16.5727 37.3603 16.6642 37.6002 16.6642C37.8401 16.6642 38.08 16.5726 38.2631 16.3896L40.5928 14.0601C40.9589 13.694 40.9589 13.1003 40.5928 12.7342C40.2269 12.3681 39.6334 12.3681 39.2671 12.7342Z" fill="#4697F2"/>
<path d="M27.3714 17.9672C26.2718 16.8677 24.4828 16.8677 23.3832 17.9672C22.2837 19.0668 22.2837 20.8559 23.3832 21.9554L26.0456 24.6179C26.5954 25.1677 27.3175 25.4425 28.0398 25.4425C28.762 25.4425 29.4841 25.1677 30.0339 24.6179C31.1335 23.5183 31.1335 21.7293 30.0339 20.6297L27.3714 17.9672ZM28.708 23.2921C28.531 23.4692 28.2937 23.5666 28.0398 23.5666C27.7859 23.5666 27.5485 23.4691 27.3715 23.2921L24.7091 20.6296C24.3406 20.2612 24.3406 19.6615 24.7091 19.293C24.8862 19.116 25.1235 19.0185 25.3774 19.0185C25.6313 19.0185 25.8686 19.116 26.0456 19.293L28.7081 21.9555C28.8852 22.1325 28.9827 22.3698 28.9827 22.6238C28.9827 22.8777 28.8851 23.115 28.708 23.2921Z" fill="#4697F2"/>
<path d="M44.0416 6.62193L41.3792 3.95943C40.2796 2.85983 38.4905 2.85993 37.3909 3.95943L36.0597 5.29068C35.6936 5.65677 35.6936 6.25039 36.0597 6.61649L41.3845 11.9413C41.5676 12.1244 41.8075 12.2159 42.0474 12.2159C42.2874 12.2159 42.5273 12.1243 42.7104 11.9413L44.0416 10.6101C45.1411 9.51055 45.1411 7.72152 44.0416 6.62193ZM42.7158 9.28424L42.0474 9.95258L38.0484 5.95358L38.7168 5.28533C39.0854 4.9168 39.6849 4.91689 40.0534 5.28533L42.7158 7.94783C43.0843 8.31618 43.0843 8.9158 42.7158 9.28424Z" fill="#4697F2"/>
<path d="M12.3613 36.9656L13.0295 36.2973C13.5608 35.7662 13.8533 35.058 13.8533 34.3032C13.8533 33.5485 13.5608 32.8403 13.0296 32.309C11.93 31.2095 10.141 31.2094 9.04127 32.309L7.71012 33.6403C7.34402 34.0064 7.34402 34.6 7.71012 34.9661L13.0351 40.291C13.2182 40.4741 13.4581 40.5656 13.698 40.5656C13.9379 40.5656 14.1778 40.474 14.3609 40.291C14.727 39.9249 14.727 39.3313 14.3609 38.9652L12.3613 36.9656ZM11.7038 34.9715L11.0355 35.6398L9.69884 34.3032L10.3671 33.6349C10.7357 33.2665 11.3353 33.2665 11.7038 33.6349C11.8809 33.812 11.9784 34.0493 11.9784 34.3033C11.9784 34.5573 11.8808 34.7944 11.7038 34.9715Z" fill="#4697F2"/>
<path d="M26.2173 26.5157L23.2996 25.543C23.5818 24.5841 23.3453 23.5036 22.5901 22.7485C21.4904 21.649 19.7014 21.649 18.6018 22.7485L17.2707 24.0796C16.9046 24.4457 16.9046 25.0393 17.2707 25.4055L22.5957 30.7305C22.7788 30.9136 23.0187 31.0051 23.2586 31.0051C23.4985 31.0051 23.7384 30.9136 23.9215 30.7305C24.2876 30.3644 24.2876 29.7708 23.9215 29.4046L21.9218 27.4049L22.1804 27.1464L25.6244 28.2944C25.7228 28.3272 25.8227 28.3428 25.921 28.3428C26.3135 28.3428 26.6793 28.0944 26.8102 27.7015C26.9741 27.2103 26.7086 26.6794 26.2173 26.5157ZM19.2595 24.7425L19.9277 24.0743C20.2962 23.7059 20.8959 23.7057 21.2643 24.0743C21.6314 24.4413 21.6328 25.0377 21.2685 25.4065C21.2635 25.4115 21.2584 25.4167 21.2534 25.4217L20.5962 26.0791L19.2595 24.7425Z" fill="#4697F2"/>
<path d="M30.9608 12.0374C30.6943 11.5934 30.1184 11.4494 29.6745 11.7158C29.2305 11.9822 29.0866 12.558 29.3529 13.002L31.4173 16.4427L27.9766 14.3783C27.5326 14.1119 26.9567 14.2559 26.6904 14.6999C26.424 15.1439 26.5679 15.7197 27.012 15.9861L33.6682 19.9797C33.8179 20.0695 33.9846 20.1133 34.1502 20.1133C34.3927 20.1133 34.6327 20.0194 34.8134 19.8387C35.1175 19.5345 35.1757 19.0623 34.9544 18.6934L30.9608 12.0374Z" fill="#4697F2"/>
<path d="M17.1426 32.1844L17.8109 31.5161C18.342 30.9849 18.6345 30.2768 18.6345 29.522C18.6345 28.7672 18.342 28.059 17.8109 27.5278C16.7113 26.4282 14.9222 26.4282 13.8226 27.5278L12.4914 28.8591C12.3156 29.0349 12.2168 29.2734 12.2168 29.522C12.2168 29.7706 12.3156 30.0091 12.4914 30.1849L17.8164 35.5098C17.9995 35.6929 18.2394 35.7844 18.4793 35.7844C18.7192 35.7844 18.9591 35.6928 19.1422 35.5098C19.5083 35.1437 19.5083 34.5501 19.1422 34.184L17.1426 32.1844ZM16.485 30.1903L15.8167 30.8586L14.4801 29.522L15.1485 28.8537C15.5169 28.4853 16.1165 28.4852 16.485 28.8537C16.662 29.0308 16.7595 29.2681 16.7595 29.522C16.7595 29.7759 16.662 30.0131 16.485 30.1903Z" fill="#4697F2"/>
<path d="M47.9993 23.9991C47.9993 22.3456 47.362 20.7696 46.2303 19.5772C46.8195 18.0423 46.8052 16.3423 46.1724 14.8146C46.1388 14.7338 46.1034 14.6532 46.0665 14.5735L47.0552 13.5848C47.4213 13.2187 47.4213 12.6251 47.0552 12.2589C46.6891 11.8929 46.0955 11.8929 45.7293 12.2589L12.2589 45.7291C11.8929 46.0952 11.8929 46.6888 12.2589 47.055C12.442 47.2381 12.6819 47.3296 12.9219 47.3296C13.1618 47.3296 13.4018 47.238 13.5848 47.055L14.5734 46.0663C14.6533 46.1034 14.7339 46.1387 14.8149 46.1723C16.3424 46.805 18.0422 46.8193 19.5772 46.2301C20.7697 47.3619 22.3457 47.9992 23.9993 47.9992C25.6527 47.9992 27.2288 47.362 28.4213 46.2302C29.956 46.8195 31.656 46.805 33.1837 46.1723C34.7112 45.5395 35.9236 44.3476 36.5921 42.8457C38.2355 42.8028 39.8006 42.139 40.9698 40.9698C42.1389 39.8007 42.8029 38.2356 42.8458 36.5922C44.3478 35.9236 45.5395 34.7113 46.1724 33.1837C46.8051 31.6561 46.8194 29.9562 46.2302 28.4214C47.362 27.2288 47.9993 25.6527 47.9993 23.9991ZM44.2707 28.6269C44.891 29.8293 44.9527 31.2286 44.4401 32.466C43.9276 33.7035 42.8945 34.6493 41.6058 35.0609C41.1896 35.1939 40.9204 35.5967 40.9569 36.0322C41.0696 37.3804 40.5912 38.6968 39.6442 39.6439C38.6969 40.5911 37.3795 41.0697 36.0324 40.9566C35.5982 40.9204 35.1942 41.1894 35.0613 41.6055C34.6495 42.8943 33.7038 43.9274 32.4662 44.44C31.2288 44.9526 29.8295 44.8908 28.6271 44.2707C28.2389 44.0703 27.7635 44.1649 27.4815 44.4986C26.6078 45.5316 25.3386 46.1242 23.9993 46.1242C22.6599 46.1242 21.3907 45.5317 20.517 44.4986C20.235 44.1648 19.7597 44.0702 19.3714 44.2707C18.327 44.8094 17.1339 44.9267 16.0275 44.6123L44.6124 16.0275C44.9268 17.134 44.8095 18.3269 44.2706 19.3715C44.0703 19.7598 44.1649 20.235 44.4985 20.5171C45.5318 21.3907 46.1243 22.6598 46.1243 23.9992C46.1243 25.3387 45.5318 26.6078 44.4986 27.4812C44.165 27.7633 44.0704 28.2386 44.2707 28.6269Z" fill="#E6E7E7"/>
<path d="M35.7403 0.944156C35.3741 0.578063 34.7807 0.578063 34.4144 0.944156L33.4257 1.93284C33.3458 1.89581 33.2652 1.86047 33.1843 1.82691C31.6567 1.19409 29.9567 1.17966 28.4219 1.76897C27.2295 0.637219 25.6535 0 24 0C22.3464 0 20.7704 0.637219 19.578 1.76897C18.0432 1.17966 16.3433 1.19409 14.8155 1.82681C13.2879 2.45963 12.0757 3.65147 11.4071 5.15344C9.76388 5.19638 8.19863 5.86031 7.02947 7.02938C5.86031 8.19853 5.19637 9.76369 5.15353 11.4071C3.65156 12.0757 2.45972 13.2879 1.82691 14.8156C1.19419 16.3433 1.17975 18.0432 1.76906 19.578C0.637219 20.7705 0 22.3465 0 24C0 25.6536 0.637219 27.2296 1.76897 28.422C1.19541 29.9158 1.19362 31.566 1.7775 33.0616C1.80553 33.2108 1.85681 33.34 1.91128 33.4474L0.94425 34.4144C0.578156 34.7805 0.578156 35.3741 0.94425 35.7403C1.12734 35.9233 1.36725 36.0149 1.60716 36.0149C1.84706 36.0149 2.08697 35.9233 2.27006 35.7403L35.7403 2.26997C36.1065 1.90388 36.1065 1.31025 35.7403 0.944156ZM3.72853 28.6278C3.92897 28.2395 3.83437 27.7643 3.50063 27.4821C2.4675 26.6086 1.875 25.3394 1.875 23.9999C1.875 22.6606 2.4675 21.3914 3.50072 20.5178C3.83437 20.2358 3.92887 19.7604 3.72862 19.3721C3.10837 18.1698 3.04669 16.7706 3.55922 15.533C4.07175 14.2955 5.10478 13.3497 6.39356 12.9381C6.80972 12.8051 7.07897 12.4023 7.0425 11.9668C6.92972 10.6186 7.40812 9.30216 8.35528 8.35509C9.30234 7.40803 10.618 6.92916 11.9669 7.04241C12.4023 7.07878 12.8051 6.80972 12.9381 6.39347C13.3498 5.10469 14.2956 4.07156 15.5331 3.55903C16.7707 3.0465 18.17 3.10828 19.3722 3.72844C19.7604 3.92878 20.2357 3.83428 20.5179 3.50053C21.3914 2.4675 22.6606 1.875 24 1.875C25.3394 1.875 26.6085 2.4675 27.4822 3.50063C27.7643 3.83419 28.2396 3.92878 28.6278 3.72853C29.6723 3.18984 30.8653 3.07247 31.9718 3.38691L3.38691 31.9718C3.07247 30.8652 3.18975 29.6722 3.72853 28.6278Z" fill="#E6E7E7"/>
</g>
<defs>
<clipPath id="clip0_356_1088">
<rect width="48" height="48" fill="white"/>
</clipPath>
</defs>
</svg>
